#N canvas 952 0 958 956 12;
#X obj 1222 190 else/brown;
#X obj 1220 132 tgl 19 0 empty empty empty 0 -10 0 12 #fcfcfc #000000 #000000 0 1;
#X obj 1088 173 ctlin, f 6;
#X obj 1088 225 spigot;
#X floatatom 1088 253 5 0 127 0 - - - 0;
#X obj 1153 172 ctlin;
#X obj 1153 225 spigot;
#X obj 1103 201 == 29;
#X obj 1168 201 == 28;
#X floatatom 1153 255 5 0 127 0 - - - 0;
#X floatatom 1221 263 5 0 0 0 - - - 0;
#X obj 1222 215 / 127;
#X obj 1222 240 - 0.5;
#X obj 1222 163 else/tempo -ms 100;
#X text 1051 147 F di taglio;
#X text 1154 147 rand;
#X obj 790 198 else/brown;
#X obj 788 140 tgl 19 0 empty empty empty 0 -10 0 12 #fcfcfc #000000 #000000 0 1;
#X obj 656 181 ctlin, f 6;
#X obj 656 233 spigot;
#X floatatom 656 267 5 0 127 0 - - - 0;
#X obj 721 180 ctlin;
#X obj 721 233 spigot;
#X floatatom 721 263 5 0 127 0 - - - 0;
#X floatatom 789 271 5 0 0 0 - - - 0;
#X obj 790 223 / 127;
#X obj 670 733 hsl 162 19 0 127 0 0 empty empty empty -2 -10 0 12 #fcfcfc #000000 #000000 0 1;
#X obj 790 248 - 0.5;
#X obj 790 171 else/tempo -ms 100;
#X text 722 155 rand;
#X obj 393 204 else/brown;
#X obj 391 148 tgl 19 0 empty empty empty 0 -10 0 12 #fcfcfc #000000 #000000 0 1;
#X obj 259 187 ctlin, f 6;
#X obj 259 239 spigot;
#X floatatom 259 267 5 0 127 0 - - - 0;
#X obj 324 186 ctlin;
#X obj 324 239 spigot;
#X floatatom 324 269 5 0 127 0 - - - 0;
#X floatatom 392 277 5 0 0 0 - - - 0;
#X obj 393 229 / 127;
#X obj 393 254 - 0.5;
#X obj 393 177 else/tempo -ms 100;
#X text 325 161 rand;
#X text 657 153 Hi dB;
#X obj 671 209 == 52;
#X obj 736 209 == 51;
#X text 263 163 Lo dB;
#X obj 274 215 == 48;
#X obj 339 215 == 47;
#X obj 414 145 loadbang;
#X obj 811 140 loadbang;
#X obj 1244 133 loadbang;
#X obj 338 837 outlet;
#X obj 658 823 outlet;
#X obj 1130 835 outlet;
#X obj 667 675 * -1;
#X obj 773 701 expr 127-($f1-127);
#X obj 667 642 moses 0;
#X obj 713 673 moses 128;
#X obj 316 746 hsl 162 19 0 127 0 0 empty empty empty -2 -10 0 12 #fcfcfc #000000 #000000 0 1;
#X obj 318 682 * -1;
#X obj 424 708 expr 127-($f1-127);
#X obj 318 649 moses 0;
#X obj 364 680 moses 128;
#X obj 1134 723 hsl 162 19 0 127 0 0 empty empty empty -2 -10 0 12 #fcfcfc #000000 #000000 0 1;
#X obj 1131 665 * -1;
#X obj 1237 691 expr 127-($f1-127);
#X obj 1131 632 moses 0;
#X obj 1177 663 moses 128;
#X obj 380 87 r off;
#X msg 380 113 0;
#X obj 423 86 r on;
#X msg 423 112 1;
#X obj 788 81 r off;
#X msg 788 107 0;
#X obj 831 80 r on;
#X msg 831 106 1;
#X obj 1219 74 r off;
#X msg 1219 100 0;
#X obj 1262 73 r on;
#X msg 1262 99 1;
#X obj 335 808 line;
#X obj 659 795 line;
#X obj 1129 787 line;
#X obj 744 337 *;
#X obj 706 419 +;
#X obj 788 297 t b f;
#X obj 744 371 t b f;
#X floatatom 706 450 5 0 0 0 - - - 0;
#X obj 734 509 f 0;
#X obj 727 479 t f b;
#X floatatom 734 536 5 0 0 0 - - - 0;
#X obj 706 567 !=;
#X obj 668 598 spigot;
#X obj 348 347 *;
#X obj 310 429 +;
#X obj 392 307 t b f;
#X obj 348 381 t b f;
#X floatatom 310 460 5 0 0 0 - - - 0;
#X obj 338 519 f 0;
#X obj 331 489 t f b;
#X floatatom 338 546 5 0 0 0 - - - 0;
#X obj 310 577 !=;
#X obj 272 608 spigot;
#X obj 1153 328 *;
#X obj 1169 422 +;
#X obj 1221 288 t b f;
#X obj 1207 374 t b f;
#X floatatom 1169 453 5 0 0 0 - - - 0;
#X obj 1197 512 f 0;
#X obj 1190 482 t f b;
#X floatatom 1197 539 5 0 0 0 - - - 0;
#X obj 1169 570 !=;
#X obj 1131 601 spigot;
#X msg 1131 757 \$1 300;
#X msg 661 765 \$1 300;
#X msg 337 780 \$1 300;
#X connect 0 0 11 0;
#X connect 1 0 13 0;
#X connect 2 0 3 0;
#X connect 2 1 7 0;
#X connect 3 0 4 0;
#X connect 4 0 105 0;
#X connect 5 0 6 0;
#X connect 5 1 8 0;
#X connect 6 0 9 0;
#X connect 7 0 3 1;
#X connect 8 0 6 1;
#X connect 9 0 104 0;
#X connect 10 0 106 0;
#X connect 11 0 12 0;
#X connect 12 0 10 0;
#X connect 13 0 0 0;
#X connect 16 0 25 0;
#X connect 17 0 28 0;
#X connect 18 0 19 0;
#X connect 18 1 44 0;
#X connect 19 0 20 0;
#X connect 20 0 85 0;
#X connect 21 0 22 0;
#X connect 21 1 45 0;
#X connect 22 0 23 0;
#X connect 23 0 84 0;
#X connect 24 0 86 0;
#X connect 25 0 27 0;
#X connect 26 0 115 0;
#X connect 27 0 24 0;
#X connect 28 0 16 0;
#X connect 30 0 39 0;
#X connect 31 0 41 0;
#X connect 32 0 33 0;
#X connect 32 1 47 0;
#X connect 33 0 34 0;
#X connect 34 0 95 0;
#X connect 35 0 36 0;
#X connect 35 1 48 0;
#X connect 36 0 37 0;
#X connect 37 0 94 0;
#X connect 38 0 96 0;
#X connect 39 0 40 0;
#X connect 40 0 38 0;
#X connect 41 0 30 0;
#X connect 44 0 19 1;
#X connect 45 0 22 1;
#X connect 47 0 33 1;
#X connect 48 0 36 1;
#X connect 49 0 31 0;
#X connect 50 0 17 0;
#X connect 51 0 1 0;
#X connect 55 0 26 0;
#X connect 56 0 26 0;
#X connect 57 0 55 0;
#X connect 57 1 58 0;
#X connect 58 0 26 0;
#X connect 58 1 56 0;
#X connect 59 0 116 0;
#X connect 60 0 59 0;
#X connect 61 0 59 0;
#X connect 62 0 60 0;
#X connect 62 1 63 0;
#X connect 63 0 59 0;
#X connect 63 1 61 0;
#X connect 64 0 114 0;
#X connect 65 0 64 0;
#X connect 66 0 64 0;
#X connect 67 0 65 0;
#X connect 67 1 68 0;
#X connect 68 0 64 0;
#X connect 68 1 66 0;
#X connect 69 0 70 0;
#X connect 70 0 31 0;
#X connect 71 0 72 0;
#X connect 72 0 31 0;
#X connect 73 0 74 0;
#X connect 74 0 17 0;
#X connect 75 0 76 0;
#X connect 76 0 17 0;
#X connect 77 0 78 0;
#X connect 78 0 1 0;
#X connect 79 0 80 0;
#X connect 80 0 1 0;
#X connect 81 0 52 0;
#X connect 82 0 53 0;
#X connect 83 0 54 0;
#X connect 84 0 87 0;
#X connect 85 0 88 0;
#X connect 86 0 84 0;
#X connect 86 1 84 1;
#X connect 87 0 85 0;
#X connect 87 1 85 1;
#X connect 88 0 90 0;
#X connect 88 0 92 0;
#X connect 88 0 93 0;
#X connect 89 0 91 0;
#X connect 90 0 89 1;
#X connect 90 1 89 0;
#X connect 91 0 92 1;
#X connect 92 0 93 1;
#X connect 93 0 57 0;
#X connect 94 0 97 0;
#X connect 95 0 98 0;
#X connect 96 0 94 0;
#X connect 96 1 94 1;
#X connect 97 0 95 0;
#X connect 97 1 95 1;
#X connect 98 0 100 0;
#X connect 98 0 102 0;
#X connect 98 0 103 0;
#X connect 99 0 101 0;
#X connect 100 0 99 1;
#X connect 100 1 99 0;
#X connect 101 0 102 1;
#X connect 102 0 103 1;
#X connect 103 0 62 0;
#X connect 104 0 107 0;
#X connect 105 0 108 0;
#X connect 106 0 104 0;
#X connect 106 1 104 1;
#X connect 107 0 105 0;
#X connect 107 1 105 1;
#X connect 108 0 110 0;
#X connect 108 0 112 0;
#X connect 108 0 113 0;
#X connect 109 0 111 0;
#X connect 110 0 109 1;
#X connect 110 1 109 0;
#X connect 111 0 112 1;
#X connect 112 0 113 1;
#X connect 113 0 67 0;
#X connect 114 0 83 0;
#X connect 115 0 82 0;
#X connect 116 0 81 0;
