#N canvas 4 64 1920 966 12;
#X obj 98 192 inlet;
#X obj 99 282 outlet;
#X obj 190 49 ctlin;
#X obj 190 100 spigot;
#X obj 206 73 == 54;
#X obj 191 149 / 127;
#X floatatom 100 248 5 0 0 0 - - - 0;
#X obj 189 202 expr round($f1);
#X obj 189 175 * 6;
#X obj 189 122 spigot;
#X obj 252 40 r mode;
#X msg 250 94 1;
#X msg 283 94 0;
#X obj 252 65 sel 0;
#X connect 0 0 6 0;
#X connect 2 0 3 0;
#X connect 2 1 4 0;
#X connect 3 0 9 0;
#X connect 4 0 3 1;
#X connect 5 0 8 0;
#X connect 6 0 1 0;
#X connect 7 0 6 0;
#X connect 8 0 7 0;
#X connect 9 0 5 0;
#X connect 10 0 13 0;
#X connect 11 0 9 1;
#X connect 12 0 9 1;
#X connect 13 0 11 0;
#X connect 13 1 12 0;
