#N canvas 1284 0 626 956 12;
#X obj 329 77 notein;
#X obj 329 102 stripnote;
#X obj 329 126 sel 26;
#X obj 332 180 t b b, f 6;
#X obj 332 206 realtime;
#X obj 334 234 expr 60000/$f1;
#X text 239 81 tap tempo;
#X obj 336 287 spigot;
#X obj 349 261 > 40;
#X floatatom 336 312 5 0 0 0 - - - 0;
#X obj 269 208 f 0;
#X floatatom 256 232 5 0 0 0 - - - 0;
#X obj 331 151 t b b;
#X obj 257 282 ==;
#X floatatom 257 309 5 0 0 0 - - - 0;
#X obj 256 255 t b f;
#X obj 179 647 f 0;
#X obj 70 310 bng 19 250 50 0 empty empty empty 0 -10 0 12 #fcfcfc #000000 #000000;
#X obj 34 397 i 0;
#X obj 75 396 + 1;
#X floatatom 134 458 5 0 0 0 - - - 0;
#X msg 80 353 0;
#X obj 257 340 f 0;
#X obj 256 364 sel 1;
#X obj 257 400 bng 19 250 50 0 empty empty empty 0 -10 0 12 #fcfcfc #000000 #000000;
#X text 402 310 calcolo del tap;
#X text 147 312 tap precedente;
#X text 123 430 counter tap;
#X msg 135 727 0;
#X obj 126 529 sel 0;
#X obj 306 729 outlet;
#X floatatom 258 730 5 0 0 0 - - - 0;
#X obj 305 476 sel 0;
#X msg 305 502 0;
#X obj 134 488 t f b;
#X obj 213 563 expr (($f2*($f1-1))+$f3)/($f1);
#X obj 526 577 outlet;
#X connect 0 0 1 0;
#X connect 0 1 1 1;
#X connect 1 0 2 0;
#X connect 2 0 12 0;
#X connect 3 0 4 0;
#X connect 3 1 4 1;
#X connect 4 0 5 0;
#X connect 5 0 8 0;
#X connect 5 0 7 0;
#X connect 7 0 9 0;
#X connect 8 0 7 1;
#X connect 9 0 10 1;
#X connect 9 0 13 0;
#X connect 9 0 35 2;
#X connect 10 0 11 0;
#X connect 11 0 15 0;
#X connect 12 0 3 0;
#X connect 12 0 17 0;
#X connect 12 1 10 0;
#X connect 13 0 14 0;
#X connect 14 0 22 1;
#X connect 15 0 13 0;
#X connect 15 1 13 1;
#X connect 16 0 35 1;
#X connect 17 0 18 0;
#X connect 17 0 22 0;
#X connect 17 0 36 0;
#X connect 18 0 19 0;
#X connect 18 0 20 0;
#X connect 19 0 18 1;
#X connect 20 0 34 0;
#X connect 21 0 18 0;
#X connect 22 0 23 0;
#X connect 23 0 21 0;
#X connect 23 0 24 0;
#X connect 28 0 16 0;
#X connect 28 0 31 0;
#X connect 29 0 28 0;
#X connect 29 1 35 0;
#X connect 32 0 33 0;
#X connect 33 0 35 2;
#X connect 34 0 29 0;
#X connect 34 1 16 0;
#X connect 35 0 16 1;
#X connect 35 0 31 0;
#X connect 35 0 30 0;
