#N canvas 952 0 958 956 12;
#X obj 193 287 f 0;
#X text 122 159 modalità;
#X obj 193 174 notein;
#X obj 193 201 stripnote;
#X obj 193 229 sel 25;
#X floatatom 193 394 5 0 0 0 - - - 0;
#X obj 193 444 outlet;
#X obj 326 330 loadbang;
#X msg 326 359 1;
#X obj 333 563 noteout;
#X obj 333 534 unpack f f;
#X msg 333 500 25 0;
#X msg 377 497 25 127;
#X obj 333 464 sel 0 1;
#X obj 193 347 tgl 19 0 empty empty empty 0 -10 0 12 #fcfcfc #000000 #000000 0 1;
#X obj 151 219 bng 19 250 50 0 empty empty empty 0 -10 0 12 #fcfcfc #000000 #000000;
#X obj 193 314 == 0;
#X connect 0 0 16 0;
#X connect 2 0 3 0;
#X connect 2 1 3 1;
#X connect 3 0 4 0;
#X connect 4 0 0 0;
#X connect 5 0 6 0;
#X connect 5 0 13 0;
#X connect 7 0 8 0;
#X connect 8 0 5 0;
#X connect 10 0 9 0;
#X connect 10 1 9 1;
#X connect 11 0 10 0;
#X connect 12 0 10 0;
#X connect 13 0 11 0;
#X connect 13 1 12 0;
#X connect 14 0 5 0;
#X connect 14 0 0 1;
#X connect 15 0 0 0;
#X connect 16 0 14 0;
