#N canvas 0 0 1920 966 12;
#N canvas 0 50 450 250 (subpatch) 0;
#X array note_\$0 8 float 3;
#A 0 0.312058 0.312058 0.290781 0.276597 0.262413 0.255321 0.255321 0.234044;
#A color 0;
#A width 2;
#X coords 0 1 8 0 211 141 2 0 0;
#X restore 102 134 graph;
#X floatatom 356 874 5 0 0 0 - - - 0;
#X obj 1232 79 ctlin;
#X obj 1285 196 == 19;
#X obj 1349 196 == 23;
#X obj 1413 196 == 27;
#X obj 1541 197 == 49;
#X obj 1606 199 == 53;
#X obj 1670 198 == 57;
#X obj 1735 198 == 61;
#X obj 1477 195 == 31;
#X floatatom 1249 117 4 0 0 0 - - - 0;
#X obj 1307 346 spigot;
#X obj 1381 348 spigot;
#X obj 1454 349 spigot;
#X obj 1525 349 spigot;
#X obj 1595 349 spigot;
#X obj 1668 349 spigot;
#X obj 1746 348 spigot;
#X obj 1237 348 spigot;
#X floatatom 1235 294 5 0 0 0 - - - 0;
#X obj 118 771 else/rand.dist note_\$0;
#X obj 1233 166 / 127;
#X text 329 850 nota suonata;
#X obj 195 716 loadbang;
#X obj 356 904 outlet;
#X obj 346 254 bng 19 250 50 0 empty empty empty 0 -10 0 12 #0e4345 #00faff #000000;
#X msg 195 743 7;
#X floatatom 1009 264 5 0 127 0 - - - 0;
#N canvas 0 50 450 250 (subpatch) 0;
#X array pausa_\$0 2 float 3;
#A 0 127 0;
#A color 0;
#A width 2;
#X coords 0 127 2 0 49 137 1;
#X restore 885 251 graph;
#X obj 291 708 else/rand.dist pausa_\$0 0 1;
#X obj 1039 322 tabwrite pausa_\$0;
#X obj 937 275 loadbang;
#X obj 1008 286 t b f;
#X msg 937 301 127;
#X obj 937 332 -;
#X obj 937 364 tabwrite pausa_\$0;
#X msg 1004 323 1;
#X floatatom 291 736 3 0 0 0 - - - 0;
#X obj 291 792 == 0;
#X obj 254 827 spigot;
#X obj 317 761 sel 0, f 6;
#X msg 356 793 8;
#X text 986 97 scrittura pausa;
#X text 361 678 pause;
#X obj 1016 122 ctlin, f 6;
#X obj 1016 174 spigot;
#X obj 1011 239 expr 127-$f1;
#X obj 1235 262 spigot;
#X obj 1127 104 r mode;
#X msg 1125 158 1;
#X msg 1158 158 0;
#X obj 1127 129 sel 0;
#X obj 1015 204 spigot;
#X text 1427 129 scrittura probabilità;
#X obj 316 112 vsl 19 162 0 127 0 0 empty empty empty 0 -9 0 12 #551312 #ff0400 #000000 0 1;
#X obj 427 909 stocalucisamp;
#X obj 250 667 t b b b;
#X obj 1304 507 tabwrite note_\$0, f 8;
#X obj 1377 509 tabwrite note_\$0, f 8;
#X obj 1448 511 tabwrite note_\$0, f 8;
#X obj 1522 511 tabwrite note_\$0, f 8;
#X obj 1598 514 tabwrite note_\$0, f 8;
#X obj 1674 511 tabwrite note_\$0, f 8;
#X obj 1750 510 tabwrite note_\$0, f 8;
#X obj 1234 506 tabwrite note_\$0, f 8;
#X obj 1319 404 loadbang;
#X obj 1319 430 t b b;
#X msg 1319 463 0;
#X obj 1242 410 loadbang;
#X obj 1242 436 t b b;
#X msg 1242 469 0;
#X msg 1274 469 0;
#X obj 1387 402 loadbang;
#X obj 1387 431 t b b;
#X msg 1387 464 0;
#X obj 1462 402 loadbang;
#X obj 1462 431 t b b;
#X msg 1462 464 0;
#X obj 1532 404 loadbang;
#X obj 1532 433 t b b;
#X msg 1532 466 0;
#X obj 1607 405 loadbang;
#X obj 1607 434 t b b;
#X msg 1607 467 0;
#X obj 1683 404 loadbang;
#X obj 1683 433 t b b;
#X msg 1683 466 0;
#X obj 1765 407 loadbang;
#X obj 1765 436 t b b;
#X msg 1765 469 0;
#X msg 1351 463 1;
#X msg 1419 464 2;
#X msg 1494 464 3;
#X msg 1564 466 4;
#X msg 1639 467 5;
#X msg 1715 466 6;
#X msg 1657 529 7;
#X floatatom 347 227 2 0 0 0 - - - 0;
#X obj 258 909 s notegui_\$0;
#X obj 385 174 r notegui_\$0;
#X obj 243 303 inlet;
#X obj 406 348 tabread note_\$0;
#X obj 406 398 sel 1;
#X obj 518 348 tabread note_\$0;
#X obj 518 398 sel 1;
#X obj 629 348 tabread note_\$0;
#X obj 629 398 sel 1;
#X obj 741 349 tabread note_\$0;
#X obj 741 399 sel 1;
#X obj 406 453 tabread note_\$0;
#X obj 406 503 sel 1;
#X obj 518 453 tabread note_\$0;
#X obj 518 503 sel 1;
#X obj 630 453 tabread note_\$0;
#X obj 630 503 sel 1;
#X obj 743 453 tabread note_\$0;
#X obj 743 503 sel 1;
#X obj 406 374 <= 0;
#X obj 518 374 <= 0;
#X obj 629 374 <= 0;
#X obj 741 375 <= 0;
#X obj 406 479 <= 0;
#X obj 518 479 <= 0;
#X obj 630 479 <= 0;
#X obj 743 479 <= 0;
#X obj 238 344 del 0;
#X obj 241 593 spigot;
#X obj 524 569 tgl 19 0 empty empty empty 0 -10 0 12 #fcfcfc #000000 #000000 0 1;
#X obj 433 536 loadbang;
#X msg 435 561 1;
#X obj 498 536 del 1;
#X obj 224 631 bng 19 250 50 0 empty empty empty 0 -10 0 12 #fcfcfc #000000 #000000;
#X msg 406 321 0;
#X msg 518 321 1;
#X msg 629 321 2;
#X msg 741 322 3;
#X msg 406 426 4;
#X msg 518 426 5;
#X msg 630 426 6;
#X msg 744 428 7;
#X text 335 109 prob pause, f 5;
#X text 340 204 nota;
#X obj 1031 150 == 28;
#X connect 1 0 25 0;
#X connect 1 0 56 1;
#X connect 1 0 99 0;
#X connect 2 0 22 0;
#X connect 2 1 11 0;
#X connect 3 0 19 1;
#X connect 4 0 12 1;
#X connect 5 0 13 1;
#X connect 6 0 15 1;
#X connect 7 0 16 1;
#X connect 8 0 17 1;
#X connect 9 0 18 1;
#X connect 10 0 14 1;
#X connect 11 0 3 0;
#X connect 11 0 4 0;
#X connect 11 0 5 0;
#X connect 11 0 10 0;
#X connect 11 0 6 0;
#X connect 11 0 7 0;
#X connect 11 0 8 0;
#X connect 11 0 9 0;
#X connect 12 0 58 0;
#X connect 13 0 59 0;
#X connect 14 0 60 0;
#X connect 15 0 61 0;
#X connect 16 0 62 0;
#X connect 17 0 63 0;
#X connect 18 0 64 0;
#X connect 19 0 65 0;
#X connect 20 0 19 0;
#X connect 20 0 12 0;
#X connect 20 0 13 0;
#X connect 20 0 14 0;
#X connect 20 0 15 0;
#X connect 20 0 16 0;
#X connect 20 0 17 0;
#X connect 20 0 18 0;
#X connect 21 0 40 0;
#X connect 22 0 48 0;
#X connect 24 0 27 0;
#X connect 27 0 21 2;
#X connect 28 0 33 0;
#X connect 30 0 38 0;
#X connect 32 0 34 0;
#X connect 32 0 37 0;
#X connect 33 0 35 0;
#X connect 33 1 31 0;
#X connect 33 1 35 1;
#X connect 34 0 35 0;
#X connect 35 0 36 0;
#X connect 37 0 36 1;
#X connect 38 0 39 0;
#X connect 38 0 41 0;
#X connect 39 0 40 1;
#X connect 40 0 1 0;
#X connect 41 1 42 0;
#X connect 42 0 1 0;
#X connect 45 0 46 0;
#X connect 45 1 143 0;
#X connect 46 0 53 0;
#X connect 47 0 28 0;
#X connect 48 0 20 0;
#X connect 49 0 52 0;
#X connect 50 0 48 1;
#X connect 50 0 53 1;
#X connect 51 0 48 1;
#X connect 51 0 53 1;
#X connect 52 0 50 0;
#X connect 52 1 51 0;
#X connect 53 0 55 0;
#X connect 55 0 47 0;
#X connect 57 0 21 0;
#X connect 57 1 30 0;
#X connect 57 2 56 0;
#X connect 66 0 67 0;
#X connect 67 0 68 0;
#X connect 67 1 91 0;
#X connect 68 0 58 0;
#X connect 69 0 70 0;
#X connect 70 0 71 0;
#X connect 70 1 72 0;
#X connect 71 0 65 0;
#X connect 72 0 65 1;
#X connect 73 0 74 0;
#X connect 74 0 75 0;
#X connect 74 1 92 0;
#X connect 75 0 59 0;
#X connect 76 0 77 0;
#X connect 77 0 78 0;
#X connect 77 1 93 0;
#X connect 78 0 60 0;
#X connect 79 0 80 0;
#X connect 80 0 81 0;
#X connect 80 1 94 0;
#X connect 81 0 61 0;
#X connect 82 0 83 0;
#X connect 83 0 84 0;
#X connect 83 1 95 0;
#X connect 84 0 62 0;
#X connect 85 0 86 0;
#X connect 86 0 87 0;
#X connect 86 1 96 0;
#X connect 87 0 63 0;
#X connect 88 0 89 0;
#X connect 89 0 90 0;
#X connect 89 1 97 0;
#X connect 90 0 64 0;
#X connect 91 0 58 1;
#X connect 92 0 59 1;
#X connect 93 0 60 1;
#X connect 94 0 61 1;
#X connect 95 0 62 1;
#X connect 96 0 63 1;
#X connect 97 0 64 1;
#X connect 100 0 98 0;
#X connect 101 0 133 0;
#X connect 101 0 126 0;
#X connect 101 0 98 0;
#X connect 101 0 26 0;
#X connect 102 0 118 0;
#X connect 103 0 134 0;
#X connect 104 0 119 0;
#X connect 105 0 135 0;
#X connect 106 0 120 0;
#X connect 107 0 136 0;
#X connect 108 0 121 0;
#X connect 109 0 137 0;
#X connect 110 0 122 0;
#X connect 111 0 138 0;
#X connect 112 0 123 0;
#X connect 113 0 139 0;
#X connect 114 0 124 0;
#X connect 115 0 140 0;
#X connect 116 0 125 0;
#X connect 117 0 128 0;
#X connect 117 0 131 0;
#X connect 118 0 103 0;
#X connect 119 0 105 0;
#X connect 120 0 107 0;
#X connect 121 0 109 0;
#X connect 122 0 111 0;
#X connect 123 0 113 0;
#X connect 124 0 115 0;
#X connect 125 0 117 0;
#X connect 126 0 127 0;
#X connect 127 0 132 0;
#X connect 127 0 57 0;
#X connect 128 0 127 1;
#X connect 129 0 130 0;
#X connect 130 0 128 0;
#X connect 131 0 128 0;
#X connect 133 0 102 0;
#X connect 134 0 104 0;
#X connect 135 0 106 0;
#X connect 136 0 108 0;
#X connect 137 0 110 0;
#X connect 138 0 112 0;
#X connect 139 0 114 0;
#X connect 140 0 116 0;
#X connect 143 0 46 1;
#X coords 0 -1 1 1 275 180 1 100 100;
