#N canvas 4 0 1920 966 12;
#X obj 1017 843 biquad~;
#X obj 948 805 inlet~;
#X obj 1131 881 biquad~, f 8;
#X obj 1242 910 outlet~;
#X obj 1017 809 stocalowshelv;
#X obj 1131 833 stocahighshelv;
#X obj 1311 129 else/brown;
#X obj 1309 71 tgl 19 0 empty empty empty 0 -10 0 12 #fcfcfc #000000 #000000 0 1;
#X obj 942 200 ctlin, f 6;
#X obj 942 252 spigot;
#X floatatom 1014 318 5 0 127 0 - - - 0;
#X obj 1140 90 ctlin;
#X obj 1142 147 spigot;
#X floatatom 1184 229 5 0 127 0 - - - 0;
#X floatatom 1310 202 5 0 0 0 - - - 0;
#X obj 1311 154 / 127;
#X obj 1311 179 - 0.5;
#X obj 1311 102 else/tempo -ms 100;
#X text 937 179 F di taglio;
#X text 1140 68 rand;
#X obj 1776 142 else/brown;
#X obj 1774 84 tgl 19 0 empty empty empty 0 -10 0 12 #fcfcfc #000000 #000000 0 1;
#X obj 1457 175 ctlin, f 6;
#X obj 1457 227 spigot;
#X floatatom 1473 297 5 0 127 0 - - - 0;
#X obj 1666 54 ctlin;
#X obj 1666 107 spigot;
#X floatatom 1680 234 5 0 127 0 - - - 0;
#X floatatom 1775 215 5 0 0 0 - - - 0;
#X obj 1776 167 / 127;
#X obj 1623 657 hsl 162 19 0 127 0 0 empty empty empty -2 -10 0 12 #fcfcfc #000000 #000000 0 1;
#X obj 1776 192 - 0.5;
#X obj 1776 115 else/tempo -ms 100;
#X text 1688 33 rand;
#X obj 835 133 else/brown;
#X obj 833 77 tgl 19 0 empty empty empty 0 -10 0 12 #fcfcfc #000000 #000000 0 1;
#X obj 566 188 ctlin, f 6;
#X obj 566 240 spigot;
#X floatatom 611 308 5 0 127 0 - - - 0;
#X obj 707 59 ctlin;
#X obj 707 112 spigot;
#X floatatom 719 201 5 0 127 0 - - - 0;
#X floatatom 834 206 5 0 0 0 - - - 0;
#X obj 835 158 / 127;
#X obj 835 183 - 0.5;
#X obj 835 106 else/tempo -ms 100;
#X text 708 34 rand;
#X text 1457 153 Hi dB;
#X text 566 169 Lo dB;
#X obj 1620 599 * -1;
#X obj 1726 625 expr 127-($f1-127);
#X obj 1620 566 moses 0;
#X obj 1666 597 moses 128;
#X obj 664 656 hsl 162 19 0 127 0 0 empty empty empty -2 -10 0 12 #fcfcfc #000000 #000000 0 1;
#X obj 666 592 * -1;
#X obj 772 618 expr 127-($f1-127);
#X obj 666 559 moses 0;
#X obj 712 590 moses 128;
#X obj 1167 659 hsl 162 19 0 127 0 0 empty empty empty -2 -10 0 12 #fcfcfc #000000 #000000 0 1;
#X obj 1164 601 * -1;
#X obj 1270 627 expr 127-($f1-127);
#X obj 1164 568 moses 0;
#X obj 1210 599 moses 128;
#X obj 822 16 r off;
#X msg 822 42 0;
#X obj 876 16 r on;
#X msg 876 42 1;
#X obj 1774 25 r off;
#X msg 1774 51 0;
#X obj 1817 24 r on;
#X msg 1817 50 1;
#X obj 1271 10 r off;
#X msg 1308 39 0;
#X obj 1314 9 r on;
#X msg 1351 38 1;
#X obj 1696 277 *;
#X obj 1658 359 +;
#X obj 1774 241 t b f;
#X obj 1696 311 t b f;
#X floatatom 1658 390 5 0 0 0 - - - 0;
#X obj 1686 449 f 0;
#X obj 1679 419 t f b;
#X floatatom 1686 476 5 0 0 0 - - - 0;
#X obj 1658 507 !=;
#X obj 1620 538 spigot;
#X obj 743 272 *;
#X obj 705 354 +;
#X obj 834 236 t b f;
#X obj 743 306 t b f;
#X floatatom 705 385 5 0 0 0 - - - 0;
#X obj 733 444 f 0;
#X obj 726 414 t f b;
#X floatatom 733 471 5 0 0 0 - - - 0;
#X obj 705 502 !=;
#X obj 666 532 spigot;
#X obj 1186 264 *;
#X obj 1202 358 +;
#X obj 1310 227 t b f;
#X obj 1240 310 t b f;
#X floatatom 1202 389 5 0 0 0 - - - 0;
#X obj 1230 448 f 0;
#X obj 1223 418 t f b;
#X floatatom 1230 475 5 0 0 0 - - - 0;
#X obj 1202 506 !=;
#X obj 1164 537 spigot;
#X floatatom 162 113 5 -45 15 0 - - - 0;
#X floatatom 102 333 5 0 0 0 - - - 0;
#X obj 1600 729 else/smooth;
#X obj 1162 723 else/smooth;
#X obj 661 717 else/smooth;
#X msg 661 689 \$1 150;
#X msg 1609 685 \$1 150;
#X msg 1164 693 \$1 200;
#X obj 102 302 expr 64*(exp($f1/20)-0.1);
#X floatatom 429 113 5 -45 15 0 - - - 0;
#X floatatom 322 341 5 0 0 0 - - - 0;
#X obj 322 309 expr 64*(exp($f1/20)-0.1);
#X floatatom 291 113 5 180 10000 0 - - - 0;
#X obj 212 496 expr 127/2*log10($f1/100);
#X floatatom 212 523 5 0 0 0 - - - 0;
#X obj 122 277 s guirandlow_\$0;
#X obj 330 282 s guirandhigh_\$0;
#X obj 220 471 s guirandfreq_\$0;
#X obj 1009 146 r guirandfreq_\$0;
#X obj 574 75 r guirandlow_\$0;
#X obj 1533 115 r guirandhigh_\$0;
#X obj 102 356 s guilow_\$0;
#X obj 212 552 s guifreq_\$0;
#X obj 322 367 s guihigh_\$0;
#X obj 654 306 r guilow_\$0;
#X obj 1110 315 r guifreq_\$0;
#X obj 1582 305 r guihigh_\$0;
#X obj 972 385 expr 100*pow(10 \, (2*$f1)/127);
#X obj 1468 383 expr log(0.1+$f1/64)*20;
#X obj 524 358 expr log(0.1+$f1/64)*20;
#X obj 524 389 s lowgui_\$0;
#X obj 1468 419 s highgui_\$0;
#X obj 972 413 s freqgui_\$0;
#X obj 86 31 r lowgui_\$0;
#X obj 224 31 r freqgui_\$0;
#X obj 381 35 r highgui_\$0;
#X obj 105 60 r lowrandgui_\$0;
#X obj 245 60 r freqrandgui_\$0;
#X obj 416 59 r highrandgui_\$0;
#X obj 573 51 s lowrandgui_\$0;
#X obj 1011 117 s freqrandgui_\$0;
#X obj 1531 89 s highrandgui_\$0;
#X obj 625 184 r mode;
#X msg 623 238 1;
#X msg 656 238 0;
#X obj 625 209 sel 0;
#X obj 598 269 spigot;
#X obj 768 69 r mode;
#X msg 766 123 1;
#X msg 799 123 0;
#X obj 768 94 sel 0;
#X obj 735 152 spigot;
#X obj 1004 197 r mode;
#X msg 1002 251 1;
#X msg 1038 251 0;
#X obj 1004 222 sel 0;
#X obj 977 282 spigot;
#X obj 1203 94 r mode;
#X msg 1201 148 1;
#X msg 1234 148 0;
#X obj 1203 119 sel 0;
#X obj 1176 179 spigot;
#X obj 1520 177 r mode;
#X msg 1518 231 1;
#X msg 1551 231 0;
#X obj 1520 202 sel 0;
#X obj 1493 264 spigot;
#X obj 1715 106 r mode;
#X msg 1713 160 1;
#X msg 1746 160 0;
#X obj 1715 131 sel 0;
#X obj 1688 191 spigot;
#X obj 175 6 loadbang;
#X msg 174 28 1000;
#X obj 108 133 hsl 120 19 0 127 0 0 empty empty Low\ Gain -2 -10 0 10 #551312 #ff0400 #551312 0 1;
#X obj 240 133 hsl 120 19 0 127 0 0 empty empty Cutoff\  -2 -10 0 10 #551312 #ff0400 #551312 0 1;
#X obj 372 133 hsl 120 19 0 127 0 0 empty empty High\ Gain -2 -10 0 10 #551312 #ff0400 #551312 0 1;
#X obj -5 74 r lowslider_\$0;
#X obj 314 19 r fbslider_\$0;
#X obj 482 10 r highslider_\$0;
#X obj 687 755 s lowslider_\$0;
#X obj 1164 763 s fbslider_\$0;
#X obj 1600 760 s highslider_\$0;
#X obj 581 216 == 26;
#X obj 722 88 == 0;
#X obj 957 228 == 25;
#X obj 1155 123 == 29;
#X obj 1472 203 == 30;
#X obj 1681 83 == 0;
#X obj 202 102 else/knob 29 0 127 0 0 empty empty #dfdfdf #7c7c7c black 0 0 0 0 1 320 0 0 0 empty empty 0 12 6 -15 0 1 0 0 1 1;
#X obj 331 102 else/knob 29 0 127 0 0 empty empty #dfdfdf #7c7c7c black 0 0 0 0 1 320 0 0 0 empty empty 0 12 6 -15 0 1 0 0 1 1;
#X obj 468 102 else/knob 29 0 127 0 0 empty empty #dfdfdf #7c7c7c black 0 0 0 0 1 320 0 0 0 empty empty 0 12 6 -15 0 1 0 0 1 1;
#X connect 0 0 2 0;
#X connect 1 0 0 0;
#X connect 2 0 3 0;
#X connect 4 0 0 0;
#X connect 5 0 2 0;
#X connect 6 0 15 0;
#X connect 7 0 17 0;
#X connect 8 0 9 0;
#X connect 8 1 190 0;
#X connect 9 0 161 0;
#X connect 10 0 96 0;
#X connect 10 0 132 0;
#X connect 11 0 12 0;
#X connect 11 1 191 0;
#X connect 12 0 166 0;
#X connect 13 0 95 0;
#X connect 13 0 145 0;
#X connect 14 0 97 0;
#X connect 15 0 16 0;
#X connect 16 0 14 0;
#X connect 17 0 6 0;
#X connect 20 0 29 0;
#X connect 21 0 32 0;
#X connect 22 0 23 0;
#X connect 22 1 192 0;
#X connect 23 0 171 0;
#X connect 24 0 76 0;
#X connect 24 0 133 0;
#X connect 25 0 26 0;
#X connect 25 1 193 0;
#X connect 26 0 176 0;
#X connect 27 0 75 0;
#X connect 27 0 146 0;
#X connect 28 0 77 0;
#X connect 29 0 31 0;
#X connect 30 0 111 0;
#X connect 31 0 28 0;
#X connect 32 0 20 0;
#X connect 34 0 43 0;
#X connect 35 0 45 0;
#X connect 36 0 37 0;
#X connect 36 1 188 0;
#X connect 37 0 151 0;
#X connect 38 0 86 0;
#X connect 38 0 134 0;
#X connect 39 0 40 0;
#X connect 39 1 189 0;
#X connect 40 0 156 0;
#X connect 41 0 85 0;
#X connect 41 0 144 0;
#X connect 42 0 87 0;
#X connect 43 0 44 0;
#X connect 44 0 42 0;
#X connect 45 0 34 0;
#X connect 49 0 30 0;
#X connect 50 0 30 0;
#X connect 51 0 49 0;
#X connect 51 1 52 0;
#X connect 52 0 30 0;
#X connect 52 1 50 0;
#X connect 53 0 110 0;
#X connect 54 0 53 0;
#X connect 55 0 53 0;
#X connect 56 0 54 0;
#X connect 56 1 57 0;
#X connect 57 0 53 0;
#X connect 57 1 55 0;
#X connect 58 0 112 0;
#X connect 59 0 58 0;
#X connect 60 0 58 0;
#X connect 61 0 59 0;
#X connect 61 1 62 0;
#X connect 62 0 58 0;
#X connect 62 1 60 0;
#X connect 63 0 64 0;
#X connect 64 0 35 0;
#X connect 65 0 66 0;
#X connect 66 0 35 0;
#X connect 67 0 68 0;
#X connect 68 0 21 0;
#X connect 69 0 70 0;
#X connect 70 0 21 0;
#X connect 71 0 72 0;
#X connect 72 0 7 0;
#X connect 73 0 74 0;
#X connect 74 0 7 0;
#X connect 75 0 78 0;
#X connect 76 0 79 0;
#X connect 77 0 75 0;
#X connect 77 1 75 1;
#X connect 78 0 76 0;
#X connect 78 1 76 1;
#X connect 79 0 81 0;
#X connect 79 0 83 0;
#X connect 79 0 84 0;
#X connect 80 0 82 0;
#X connect 81 0 80 1;
#X connect 81 1 80 0;
#X connect 82 0 83 1;
#X connect 83 0 84 1;
#X connect 84 0 51 0;
#X connect 85 0 88 0;
#X connect 86 0 89 0;
#X connect 87 0 85 0;
#X connect 87 1 85 1;
#X connect 88 0 86 0;
#X connect 88 1 86 1;
#X connect 89 0 91 0;
#X connect 89 0 93 0;
#X connect 89 0 94 0;
#X connect 90 0 92 0;
#X connect 91 0 90 1;
#X connect 91 1 90 0;
#X connect 92 0 93 1;
#X connect 93 0 94 1;
#X connect 94 0 56 0;
#X connect 95 0 98 0;
#X connect 96 0 99 0;
#X connect 97 0 95 0;
#X connect 97 1 95 1;
#X connect 98 0 96 0;
#X connect 98 1 96 1;
#X connect 99 0 101 0;
#X connect 99 0 103 0;
#X connect 99 0 104 0;
#X connect 100 0 102 0;
#X connect 101 0 100 1;
#X connect 101 1 100 0;
#X connect 102 0 103 1;
#X connect 103 0 104 1;
#X connect 104 0 61 0;
#X connect 105 0 113 0;
#X connect 106 0 126 0;
#X connect 107 0 5 1;
#X connect 107 0 187 0;
#X connect 108 0 4 0;
#X connect 108 0 5 0;
#X connect 108 0 186 0;
#X connect 109 0 4 1;
#X connect 109 0 185 0;
#X connect 110 0 109 0;
#X connect 111 0 107 0;
#X connect 112 0 108 0;
#X connect 113 0 106 0;
#X connect 114 0 116 0;
#X connect 115 0 128 0;
#X connect 116 0 115 0;
#X connect 117 0 118 0;
#X connect 118 0 119 0;
#X connect 119 0 127 0;
#X connect 123 0 95 0;
#X connect 124 0 85 0;
#X connect 125 0 75 0;
#X connect 129 0 86 0;
#X connect 130 0 96 0;
#X connect 131 0 76 0;
#X connect 132 0 137 0;
#X connect 133 0 136 0;
#X connect 134 0 135 0;
#X connect 138 0 105 0;
#X connect 139 0 117 0;
#X connect 140 0 114 0;
#X connect 141 0 194 0;
#X connect 142 0 195 0;
#X connect 143 0 196 0;
#X connect 147 0 150 0;
#X connect 148 0 151 1;
#X connect 149 0 151 1;
#X connect 150 0 148 0;
#X connect 150 1 149 0;
#X connect 151 0 38 0;
#X connect 152 0 155 0;
#X connect 153 0 156 1;
#X connect 154 0 156 1;
#X connect 155 0 153 0;
#X connect 155 1 154 0;
#X connect 156 0 41 0;
#X connect 157 0 160 0;
#X connect 158 0 161 1;
#X connect 159 0 161 1;
#X connect 160 0 158 0;
#X connect 160 1 159 0;
#X connect 161 0 10 0;
#X connect 162 0 165 0;
#X connect 163 0 166 1;
#X connect 164 0 166 1;
#X connect 165 0 163 0;
#X connect 165 1 164 0;
#X connect 166 0 13 0;
#X connect 167 0 170 0;
#X connect 168 0 171 1;
#X connect 169 0 171 1;
#X connect 170 0 168 0;
#X connect 170 1 169 0;
#X connect 171 0 24 0;
#X connect 172 0 175 0;
#X connect 173 0 176 1;
#X connect 174 0 176 1;
#X connect 175 0 173 0;
#X connect 175 1 174 0;
#X connect 176 0 27 0;
#X connect 177 0 178 0;
#X connect 178 0 117 0;
#X connect 182 0 179 0;
#X connect 183 0 180 0;
#X connect 184 0 181 0;
#X connect 188 0 37 1;
#X connect 189 0 40 1;
#X connect 190 0 9 1;
#X connect 191 0 12 1;
#X connect 192 0 23 1;
#X connect 193 0 26 1;
#X connect 194 0 120 0;
#X connect 195 0 122 0;
#X connect 196 0 121 0;
#X coords 0 -1 1 1 400 60 2 100 100;
