#N canvas 0 64 1920 966 12;
#X floatatom 457 89 5 0 0 0 - - - 0;
#X obj 1114 556 noteout;
#X obj 736 328 f 0;
#X floatatom 740 357 5 0 0 0 - - - 0;
#X msg 1114 493 \$1 0;
#X obj 1114 527 unpack f f;
#X msg 736 449 1;
#X msg 781 447 4;
#X msg 826 446 7;
#X msg 871 447 10;
#X msg 961 446 16;
#X msg 916 446 13;
#X msg 1005 447 19;
#X msg 1050 445 22;
#X floatatom 1115 444 5 0 0 0 - - - 0;
#X msg 735 229 1;
#X msg 778 227 4;
#X msg 822 229 7;
#X msg 865 228 10;
#X msg 953 226 16;
#X msg 910 228 13;
#X msg 997 227 19;
#X msg 1040 229 22;
#X obj 1119 335 noteout;
#X obj 1119 302 unpack f f;
#X msg 1118 268 \$1 127;
#X obj 778 194 sel 1;
#X obj 778 267 bng 19 250 50 0 empty empty empty 0 -10 0 12 #fcfcfc #000000 #000000;
#X obj 735 194 sel 0;
#X obj 822 194 sel 2;
#X obj 865 194 sel 3;
#X obj 910 194 sel 4;
#X obj 953 194 sel 5;
#X obj 997 193 sel 6;
#X obj 1040 193 sel 7;
#X obj 735 267 bng 19 250 50 0 empty empty empty 0 -10 0 12 #fcfcfc #000000 #000000;
#X obj 822 268 bng 19 250 50 0 empty empty empty 0 -10 0 12 #fcfcfc #000000 #000000;
#X obj 867 269 bng 19 250 50 0 empty empty empty 0 -10 0 12 #fcfcfc #000000 #000000;
#X obj 909 270 bng 19 250 50 0 empty empty empty 0 -10 0 12 #fcfcfc #000000 #000000;
#X obj 953 271 bng 19 250 50 0 empty empty empty 0 -10 0 12 #fcfcfc #000000 #000000;
#X obj 997 272 bng 19 250 50 0 empty empty empty 0 -10 0 12 #fcfcfc #000000 #000000;
#X obj 1040 271 bng 19 250 50 0 empty empty empty 0 -10 0 12 #fcfcfc #000000 #000000;
#X floatatom 1118 229 5 0 0 0 - - - 0;
#X text 431 61 nota suonata;
#X text 619 357 nota precedente;
#X obj 736 404 sel 0;
#X obj 781 403 sel 1;
#X obj 826 403 sel 2;
#X obj 871 403 sel 3;
#X obj 916 403 sel 4;
#X obj 961 403 sel 5;
#X obj 1005 403 sel 6;
#X obj 1050 402 sel 7;
#X obj 681 410 r off;
#X text 848 142 reparto luci;
#X obj 229 136 inlet;
#X obj 97 38 inlet;
#X obj 1396 938 noteout;
#X connect 0 0 2 1;
#X connect 0 0 26 0;
#X connect 0 0 28 0;
#X connect 0 0 29 0;
#X connect 0 0 30 0;
#X connect 0 0 31 0;
#X connect 0 0 32 0;
#X connect 0 0 33 0;
#X connect 0 0 34 0;
#X connect 2 0 3 0;
#X connect 3 0 45 0;
#X connect 3 0 46 0;
#X connect 3 0 47 0;
#X connect 3 0 48 0;
#X connect 3 0 49 0;
#X connect 3 0 50 0;
#X connect 3 0 51 0;
#X connect 3 0 52 0;
#X connect 4 0 5 0;
#X connect 5 0 1 0;
#X connect 5 1 1 1;
#X connect 6 0 4 0;
#X connect 7 0 4 0;
#X connect 8 0 4 0;
#X connect 9 0 4 0;
#X connect 10 0 4 0;
#X connect 11 0 4 0;
#X connect 12 0 4 0;
#X connect 13 0 4 0;
#X connect 14 0 4 0;
#X connect 15 0 25 0;
#X connect 15 0 35 0;
#X connect 16 0 25 0;
#X connect 16 0 27 0;
#X connect 17 0 25 0;
#X connect 17 0 36 0;
#X connect 18 0 25 0;
#X connect 18 0 37 0;
#X connect 19 0 25 0;
#X connect 19 0 39 0;
#X connect 20 0 25 0;
#X connect 20 0 38 0;
#X connect 21 0 25 0;
#X connect 21 0 40 0;
#X connect 22 0 25 0;
#X connect 22 0 41 0;
#X connect 24 0 23 0;
#X connect 24 1 23 1;
#X connect 25 0 24 0;
#X connect 26 0 16 0;
#X connect 28 0 15 0;
#X connect 29 0 17 0;
#X connect 30 0 18 0;
#X connect 31 0 20 0;
#X connect 32 0 19 0;
#X connect 33 0 21 0;
#X connect 34 0 22 0;
#X connect 42 0 25 0;
#X connect 45 0 6 0;
#X connect 46 0 7 0;
#X connect 47 0 8 0;
#X connect 48 0 9 0;
#X connect 49 0 11 0;
#X connect 50 0 10 0;
#X connect 51 0 12 0;
#X connect 52 0 13 0;
#X connect 53 0 6 0;
#X connect 53 0 7 0;
#X connect 53 0 8 0;
#X connect 53 0 11 0;
#X connect 53 0 10 0;
#X connect 53 0 12 0;
#X connect 53 0 13 0;
#X connect 53 0 9 0;
#X connect 55 0 2 0;
#X connect 56 0 0 0;
