#N canvas 0 64 1920 966 12;
#X declare -path samples;
#X obj 86 440 soundfiler;
#N canvas 0 50 450 250 (subpatch) 0;
#X array sample1 25383 float 2;
#A color 0;
#A width 2;
#X coords 0 1 25383 -1 200 100 1 0 0;
#X restore 168 450 graph;
#X floatatom 86 472 7 0 0 0 - - - 0;
#X obj 90 587 vline~;
#X msg 90 548 0 0 \, \$2 \$3 0;
#X obj 711 31 inlet;
#X obj 1399 31 inlet;
#X obj 90 631 tabread4~ sample1;
#X listbox 713 65 20 0 0 0 - - - 0;
#X obj 713 95 unpack f f;
#X floatatom 711 153 5 0 0 0 - - - 0;
#X obj 488 442 soundfiler;
#N canvas 0 50 450 250 (subpatch) 0;
#X array sample2 2560 float 2;
#A color 0;
#A width 2;
#X coords 0 1 2560 -1 200 100 1 0 0;
#X restore 570 452 graph;
#X floatatom 488 474 7 0 0 0 - - - 0;
#X obj 487 579 vline~;
#X msg 487 540 0 0 \, \$2 \$3 0;
#X obj 895 443 soundfiler;
#N canvas 0 50 450 250 (subpatch) 0;
#X array sample3 45245 float 2;
#A color 0;
#A width 2;
#X coords 0 1 45245 -1 200 100 1 0 0;
#X restore 990 450 graph;
#X floatatom 895 475 7 0 0 0 - - - 0;
#X obj 890 579 vline~;
#X msg 890 540 0 0 \, \$2 \$3 0;
#X obj 1310 446 soundfiler;
#N canvas 0 50 450 250 (subpatch) 0;
#X array sample4 7377 float 2;
#A color 0;
#A width 2;
#X coords 0 1 7377 -1 200 100 1 0 0;
#X restore 1392 456 graph;
#X floatatom 1310 478 7 0 0 0 - - - 0;
#X obj 1301 590 vline~;
#X msg 1301 551 0 0 \, \$2 \$3 0;
#X obj 1722 451 soundfiler;
#N canvas 0 50 450 250 (subpatch) 0;
#X array sample5 15602 float 2;
#A color 0;
#A width 2;
#X coords 0 1 15602 -1 200 100 1 0 0;
#X restore 1804 461 graph;
#X floatatom 1722 483 7 0 0 0 - - - 0;
#X obj 1710 594 vline~;
#X msg 1710 555 0 0 \, \$2 \$3 0;
#X obj 2137 452 soundfiler;
#N canvas 0 50 450 250 (subpatch) 0;
#X array sample6 13274 float 2;
#A color 0;
#A width 2;
#X coords 0 1 13274 -1 200 100 1 0 0;
#X restore 2219 462 graph;
#X floatatom 2137 484 7 0 0 0 - - - 0;
#X obj 2132 582 vline~;
#X msg 2132 543 0 0 \, \$2 \$3 0;
#X obj 2638 433 soundfiler;
#N canvas 0 50 450 250 (subpatch) 0;
#X array sample7 53593 float 2;
#A color 0;
#A width 2;
#X coords 0 1 53593 -1 200 100 1 0 0;
#X restore 2720 443 graph;
#X floatatom 2638 465 7 0 0 0 - - - 0;
#X obj 2625 570 vline~;
#X msg 2625 531 0 0 \, \$2 \$3 0;
#X obj 3173 438 soundfiler;
#N canvas 0 50 450 250 (subpatch) 0;
#X array sample8 70331 float 2;
#A color 0;
#A width 2;
#X coords 0 1 70331 -1 200 100 1 0 0;
#X restore 3255 448 graph;
#X floatatom 3173 470 7 0 0 0 - - - 0;
#X obj 3161 578 vline~;
#X msg 3161 539 0 0 \, \$2 \$3 0;
#X obj 491 624 tabread4~ sample2;
#X obj 891 611 tabread4~ sample3;
#X obj 1301 628 tabread4~ sample4;
#X obj 1710 638 tabread4~ sample5;
#X obj 2132 626 tabread4~ sample6;
#X obj 3161 612 tabread4~ sample8;
#X obj 86 354 loadbang;
#X obj 1720 369 loadbang;
#X obj 710 122 expr (60000/$f1) * $f2;
#X obj 1555 124 bng 19 250 50 0 empty empty empty 0 -10 0 12 #fcfcfc #000000 #000000;
#X obj 1470 124 bng 19 250 50 0 empty empty empty 0 -10 0 12 #fcfcfc #000000 #000000;
#X obj 1493 124 bng 19 250 50 0 empty empty empty 0 -10 0 12 #fcfcfc #000000 #000000;
#X obj 1513 123 bng 19 250 50 0 empty empty empty 0 -10 0 12 #fcfcfc #000000 #000000;
#X obj 1534 124 bng 19 250 50 0 empty empty empty 0 -10 0 12 #fcfcfc #000000 #000000;
#X obj 1576 124 bng 19 250 50 0 empty empty empty 0 -10 0 12 #fcfcfc #000000 #000000;
#X obj 1598 124 bng 19 250 50 0 empty empty empty 0 -10 0 12 #fcfcfc #000000 #000000;
#X obj 1621 123 bng 19 250 50 0 empty empty empty 0 -10 0 12 #fcfcfc #000000 #000000;
#X obj 2625 614 tabread4~ sample7;
#X obj 2139 368 loadbang;
#X obj 2636 346 loadbang;
#X obj 3173 355 loadbang;
#X obj 90 512 pack 0 0 0;
#X obj 487 504 pack 0 0 0;
#X obj 890 504 pack 0 0 0;
#X obj 1301 515 pack 0 0 0;
#X obj 1710 519 pack 0 0 0;
#X obj 2132 507 pack 0 0 0;
#X obj 2625 495 pack 0 0 0;
#X obj 3161 503 pack 0 0 0;
#X obj 487 360 loadbang;
#X obj 896 360 loadbang;
#X obj 1310 364 loadbang;
#X obj 1002 36 declare -path samples;
#X msg 86 383 read -resize 1.wav sample1;
#X msg 488 385 read -resize 2.wav sample2;
#X msg 895 386 read -resize 3.wav sample3;
#X msg 1310 389 read -resize 4.wav sample4;
#X msg 1722 394 read -resize 5.wav sample5;
#X msg 2137 395 read -resize 6.wav sample6;
#X msg 2638 376 read -resize 7.wav sample7;
#X msg 3173 381 read -resize 8.wav sample8;
#X obj 1399 69 unpack f f;
#X obj 1400 104 spigot;
#X obj 1399 161 sel 1 2 3 4 5 6 7 8;
#X obj 89 678 outlet~;
#X obj 90 656 hip~ 1;
#X obj 488 678 outlet~;
#X obj 489 656 hip~ 1;
#X obj 891 672 outlet~;
#X obj 892 650 hip~ 1;
#X obj 1295 697 outlet~;
#X obj 1296 675 hip~ 1;
#X obj 1707 696 outlet~;
#X obj 1708 674 hip~ 1;
#X obj 2134 684 outlet~;
#X obj 2135 662 hip~ 1;
#X obj 2626 687 outlet~;
#X obj 2627 665 hip~ 1;
#X obj 3164 681 outlet~;
#X obj 3165 659 hip~ 1;
#X connect 0 0 2 0;
#X connect 2 0 67 1;
#X connect 3 0 7 0;
#X connect 4 0 3 0;
#X connect 5 0 8 0;
#X connect 6 0 87 0;
#X connect 7 0 91 0;
#X connect 8 0 9 0;
#X connect 9 0 54 0;
#X connect 9 1 54 1;
#X connect 10 0 67 2;
#X connect 10 0 68 2;
#X connect 10 0 69 2;
#X connect 10 0 70 2;
#X connect 10 0 71 2;
#X connect 10 0 72 2;
#X connect 10 0 73 2;
#X connect 10 0 74 2;
#X connect 11 0 13 0;
#X connect 13 0 68 1;
#X connect 14 0 46 0;
#X connect 15 0 14 0;
#X connect 16 0 18 0;
#X connect 18 0 69 1;
#X connect 19 0 47 0;
#X connect 20 0 19 0;
#X connect 21 0 23 0;
#X connect 23 0 70 1;
#X connect 24 0 48 0;
#X connect 25 0 24 0;
#X connect 26 0 28 0;
#X connect 28 0 71 1;
#X connect 29 0 49 0;
#X connect 30 0 29 0;
#X connect 31 0 33 0;
#X connect 33 0 72 1;
#X connect 34 0 50 0;
#X connect 35 0 34 0;
#X connect 36 0 38 0;
#X connect 38 0 73 1;
#X connect 39 0 63 0;
#X connect 40 0 39 0;
#X connect 41 0 43 0;
#X connect 43 0 74 1;
#X connect 44 0 51 0;
#X connect 45 0 44 0;
#X connect 46 0 93 0;
#X connect 47 0 95 0;
#X connect 48 0 97 0;
#X connect 49 0 99 0;
#X connect 50 0 101 0;
#X connect 51 0 105 0;
#X connect 52 0 79 0;
#X connect 53 0 83 0;
#X connect 54 0 10 0;
#X connect 63 0 103 0;
#X connect 64 0 84 0;
#X connect 65 0 85 0;
#X connect 66 0 86 0;
#X connect 67 0 4 0;
#X connect 68 0 15 0;
#X connect 69 0 20 0;
#X connect 70 0 25 0;
#X connect 71 0 30 0;
#X connect 72 0 35 0;
#X connect 73 0 40 0;
#X connect 74 0 45 0;
#X connect 75 0 80 0;
#X connect 76 0 81 0;
#X connect 77 0 82 0;
#X connect 79 0 0 0;
#X connect 80 0 11 0;
#X connect 81 0 16 0;
#X connect 82 0 21 0;
#X connect 83 0 26 0;
#X connect 84 0 31 0;
#X connect 85 0 36 0;
#X connect 86 0 41 0;
#X connect 87 0 88 0;
#X connect 87 1 88 1;
#X connect 88 0 89 0;
#X connect 89 0 56 0;
#X connect 89 0 67 0;
#X connect 89 1 57 0;
#X connect 89 1 68 0;
#X connect 89 2 58 0;
#X connect 89 2 69 0;
#X connect 89 3 59 0;
#X connect 89 3 70 0;
#X connect 89 4 55 0;
#X connect 89 4 71 0;
#X connect 89 5 60 0;
#X connect 89 5 72 0;
#X connect 89 6 61 0;
#X connect 89 6 73 0;
#X connect 89 7 62 0;
#X connect 89 7 74 0;
#X connect 91 0 90 0;
#X connect 93 0 92 0;
#X connect 95 0 94 0;
#X connect 97 0 96 0;
#X connect 99 0 98 0;
#X connect 101 0 100 0;
#X connect 103 0 102 0;
#X connect 105 0 104 0;
