#N canvas 4 0 1920 966 12;
#X obj 349 780 metro 1 120 permin;
#X msg 353 750 tempo \$1 permin;
#X obj 571 200 spigot;
#X obj 571 224 / 127;
#X obj 571 246 * 5;
#X obj 568 290 i 0;
#X obj 568 315 + 1;
#X obj 568 340 expr 1/($f1);
#X obj 570 268 - 0.01;
#X obj 568 398 spigot;
#X obj 607 366 != 0.2;
#X obj 630 398 sel 0;
#X msg 630 425 0.125;
#X obj 570 145 ctlin;
#X obj 281 663 stocatap;
#X obj 281 689 sel 0;
#X floatatom 354 721 5 0 0 0 - - - 0;
#X obj 566 452 f 0;
#X obj 526 754 pack f f;
#X obj 525 781 outlet;
#X obj 550 722 t b f;
#X msg 501 423 1;
#X obj 501 398 loadbang;
#X obj 348 810 bng 19 250 50 0 empty empty empty 0 -10 0 12 #fcfcfc #000000 #000000;
#X obj 348 838 outlet;
#X obj 264 734 r on;
#X obj 298 735 r off;
#X msg 298 761 0;
#X msg 265 761 1;
#X obj 793 786 metro 1 120 permin;
#X msg 796 757 tempo \$1 permin;
#X obj 702 690 stocatap;
#X obj 702 712 sel 0;
#X floatatom 798 731 5 0 0 0 - - - 0;
#X obj 793 812 bng 19 250 50 0 empty empty empty 0 -10 0 12 #fcfcfc #000000 #000000;
#X obj 715 758 r on;
#X obj 754 757 r off;
#X msg 752 784 0;
#X msg 715 782 1;
#X obj 1104 701 metro 1 120 permin;
#X msg 1103 673 tempo \$1 permin;
#X obj 1184 612 stocatap;
#X obj 1184 637 sel 0;
#X floatatom 1103 644 5 0 0 0 - - - 0;
#X obj 1104 725 bng 19 250 50 0 empty empty empty 0 -10 0 12 #fcfcfc #000000 #000000;
#X msg 1104 750 26 127;
#X obj 1105 825 unpack f f;
#X obj 1106 856 noteout;
#X msg 1133 800 26 0;
#X obj 1132 775 del 100;
#X obj 1017 674 r on;
#X obj 1056 674 r off;
#X msg 1059 700 0;
#X msg 1022 698 1;
#X obj 617 751 pack f f;
#X obj 616 781 outlet;
#X obj 618 722 t b f;
#X obj 793 839 outlet;
#X text 733 657 tempo set sampler;
#X floatatom 566 478 3 0 0 0 - - - 0;
#X obj 620 567 spigot;
#X obj 476 597 spigot;
#X obj 515 572 r mode;
#X obj 645 481 r mode;
#X msg 643 535 1;
#X msg 676 535 0;
#X obj 645 506 sel 0;
#X obj 157 122 vradio 19 1 0 5 empty empty empty 0 -10 0 12 #594100 #faff00 #000000 0;
#X obj 208 121 vradio 19 1 0 5 empty empty empty 0 -10 0 12 #551312 #ff0400 #000000 0;
#X floatatom 109 122 5 0 700 0 - - - 0;
#X obj 116 211 bng 19 250 50 0 empty empty empty 0 -10 0 12 #0e4345 #00faff #000000;
#X obj 477 621 f 0;
#X obj 631 600 f 0;
#X obj 1017 775 s metro_\$0;
#X obj 12 178 r metro_\$0;
#X text 186 121 1;
#X text 177 201 1/8;
#X text 177 182 1/4;
#X text 177 160 1/3;
#X obj 259 66 bng 19 250 50 0 empty empty empty 0 -10 0 12 #fcfcfc #000000 #000000;
#X obj 288 67 bng 19 250 50 0 empty empty empty 0 -10 0 12 #fcfcfc #000000 #000000;
#X obj 344 66 bng 19 250 50 0 empty empty empty 0 -10 0 12 #fcfcfc #000000 #000000;
#X obj 370 65 bng 19 250 50 0 empty empty empty 0 -10 0 12 #fcfcfc #000000 #000000;
#X obj 316 67 bng 19 250 50 0 empty empty empty 0 -10 0 12 #fcfcfc #000000 #000000;
#X obj 258 39 sel 1 0.5 0.25 0.125;
#X obj 466 479 s division_\$0;
#X obj 258 11 r division_\$0;
#X obj 401 129 spigot;
#X obj 260 130 spigot;
#X obj 309 129 r mode;
#X obj 440 49 r mode;
#X msg 438 103 1;
#X msg 471 103 0;
#X obj 440 74 sel 0;
#X msg 260 95 0;
#X msg 293 94 1;
#X msg 328 95 2;
#X msg 363 95 3;
#X msg 397 94 4;
#X text 162 102 division;
#X text 112 103 bpm;
#X msg 204 300 1, f 1;
#X msg 223 298 0.5, f 1;
#X msg 245 299 0.333333, f 2;
#X msg 273 300 0.25, f 1;
#X msg 299 299 0.125, f 1;
#X obj 204 272 sel 0 1 2 3 4;
#X obj 235 378 f 0;
#X msg 81 297 1, f 1;
#X msg 100 295 0.5, f 1;
#X msg 122 296 0.333333, f 2;
#X msg 150 297 0.25, f 1;
#X msg 176 296 0.125, f 1;
#X obj 81 269 sel 0 1 2 3 4;
#X obj 112 375 f 0;
#X text 178 143 1/2;
#X obj 987 129 else/brown;
#X obj 985 71 tgl 19 0 empty empty empty 0 -10 0 12 #fcfcfc #000000 #000000 0 1;
#X obj 902 78 ctlin;
#X obj 904 135 spigot;
#X floatatom 986 202 5 0 0 0 - - - 0;
#X obj 987 154 / 127;
#X obj 987 179 - 0.5;
#X obj 987 102 else/tempo -ms 100;
#X text 902 56 rand;
#X obj 949 571 hsl 162 19 0 700 0 0 empty empty empty -2 -10 0 12 #fcfcfc #000000 #000000 0 1;
#X obj 946 524 * -1;
#X obj 946 500 moses 0;
#X obj 984 12 r off;
#X msg 984 39 0;
#X obj 1027 11 r on;
#X msg 1027 38 1;
#X obj 976 265 *;
#X obj 975 320 +;
#X obj 985 226 t b f;
#X obj 975 294 t b f;
#X floatatom 974 346 5 0 0 0 - - - 0;
#X obj 1002 394 f 0;
#X obj 995 369 t f b;
#X floatatom 1002 421 5 0 0 0 - - - 0;
#X obj 984 443 !=;
#X obj 946 474 spigot;
#X obj 845 71 ctlin;
#X obj 845 138 spigot;
#X obj 845 175 / 127;
#X obj 844 201 * 700;
#X obj 861 107 == 56;
#X text 347 660 tempo set synth;
#X floatatom 851 232 5 0 700 0 - - - 0;
#X text 1262 657 tempo luce;
#X obj 904 186 / 127;
#X obj 905 212 * 700;
#X obj 992 522 moses 700;
#X obj 1052 545 expr 700-($f1-700);
#X floatatom 904 235 5 0 700 0 - - - 0;
#X obj 799 697 r bpm_\$0;
#X obj 353 692 r bpm_\$0;
#X obj 1101 618 r bpm_\$0;
#X text 522 124 input tempo division;
#X text 815 49 input bpm;
#X text 219 253 send division da gui;
#X text 378 11 division da input a gui;
#X text 496 815 division synth;
#X text 605 816 division samp;
#X text 346 860 bpm synth;
#X text 848 838 bpm samp;
#X obj 68 9 loadbang;
#X msg 90 55 120;
#X msg 125 55 0;
#X obj 578 174 == 55;
#X obj 917 107 == 60;
#X listbox 505 873 20 0 0 0 - - - 0;
#X obj 89 32 t b b;
#X obj 106 167 else/knob 38 0 127 0 0 empty empty #dfdfdf #7c7c7c black 0 0 0 0 1 320 0 0 0 empty empty 0 12 6 -15 0 1 0 0 1 1;
#X text 108 148 rand;
#X connect 0 0 23 0;
#X connect 1 0 0 0;
#X connect 2 0 3 0;
#X connect 3 0 4 0;
#X connect 4 0 8 0;
#X connect 5 0 6 0;
#X connect 6 0 7 0;
#X connect 7 0 9 0;
#X connect 7 0 10 0;
#X connect 8 0 5 0;
#X connect 9 0 17 0;
#X connect 10 0 9 1;
#X connect 10 0 11 0;
#X connect 11 0 12 0;
#X connect 12 0 17 0;
#X connect 13 0 2 0;
#X connect 13 1 169 0;
#X connect 14 0 15 0;
#X connect 14 1 0 0;
#X connect 15 0 16 0;
#X connect 15 1 1 0;
#X connect 16 0 1 0;
#X connect 16 0 18 0;
#X connect 17 0 59 0;
#X connect 18 0 19 0;
#X connect 18 0 171 0;
#X connect 20 0 18 0;
#X connect 20 1 18 1;
#X connect 21 0 17 0;
#X connect 22 0 21 0;
#X connect 23 0 24 0;
#X connect 25 0 28 0;
#X connect 26 0 27 0;
#X connect 27 0 0 0;
#X connect 28 0 0 0;
#X connect 29 0 34 0;
#X connect 30 0 29 0;
#X connect 31 0 32 0;
#X connect 31 1 29 0;
#X connect 32 0 33 0;
#X connect 32 1 30 0;
#X connect 33 0 30 0;
#X connect 33 0 54 0;
#X connect 34 0 57 0;
#X connect 35 0 38 0;
#X connect 36 0 37 0;
#X connect 37 0 29 0;
#X connect 38 0 29 0;
#X connect 39 0 44 0;
#X connect 40 0 39 0;
#X connect 41 0 42 0;
#X connect 41 1 39 0;
#X connect 42 0 43 0;
#X connect 42 1 40 0;
#X connect 43 0 40 0;
#X connect 44 0 45 0;
#X connect 44 0 73 0;
#X connect 45 0 46 0;
#X connect 45 0 49 0;
#X connect 46 0 47 0;
#X connect 46 1 47 1;
#X connect 48 0 46 0;
#X connect 49 0 48 0;
#X connect 50 0 53 0;
#X connect 51 0 52 0;
#X connect 52 0 39 0;
#X connect 53 0 39 0;
#X connect 54 0 55 0;
#X connect 56 0 54 0;
#X connect 56 1 54 1;
#X connect 59 0 61 0;
#X connect 59 0 60 0;
#X connect 59 0 85 0;
#X connect 60 0 72 0;
#X connect 61 0 71 0;
#X connect 62 0 61 1;
#X connect 63 0 66 0;
#X connect 64 0 60 1;
#X connect 65 0 60 1;
#X connect 66 0 64 0;
#X connect 66 1 65 0;
#X connect 67 0 113 0;
#X connect 68 0 106 0;
#X connect 69 0 148 0;
#X connect 71 0 0 1;
#X connect 71 0 20 0;
#X connect 72 0 56 0;
#X connect 72 0 29 1;
#X connect 74 0 70 0;
#X connect 79 0 94 0;
#X connect 80 0 95 0;
#X connect 81 0 97 0;
#X connect 82 0 98 0;
#X connect 83 0 96 0;
#X connect 84 0 79 0;
#X connect 84 1 80 0;
#X connect 84 2 81 0;
#X connect 84 3 82 0;
#X connect 84 4 83 0;
#X connect 86 0 84 0;
#X connect 87 0 68 0;
#X connect 88 0 67 0;
#X connect 89 0 88 1;
#X connect 90 0 93 0;
#X connect 91 0 87 1;
#X connect 92 0 87 1;
#X connect 93 0 91 0;
#X connect 93 1 92 0;
#X connect 94 0 88 0;
#X connect 94 0 87 0;
#X connect 95 0 88 0;
#X connect 95 0 87 0;
#X connect 96 0 88 0;
#X connect 96 0 87 0;
#X connect 97 0 88 0;
#X connect 97 0 87 0;
#X connect 98 0 88 0;
#X connect 98 0 87 0;
#X connect 101 0 107 0;
#X connect 102 0 107 0;
#X connect 103 0 107 0;
#X connect 104 0 107 0;
#X connect 105 0 107 0;
#X connect 106 0 101 0;
#X connect 106 1 102 0;
#X connect 106 2 103 0;
#X connect 106 3 104 0;
#X connect 106 4 105 0;
#X connect 107 0 72 0;
#X connect 108 0 114 0;
#X connect 109 0 114 0;
#X connect 110 0 114 0;
#X connect 111 0 114 0;
#X connect 112 0 114 0;
#X connect 113 0 108 0;
#X connect 113 1 109 0;
#X connect 113 2 110 0;
#X connect 113 3 111 0;
#X connect 113 4 112 0;
#X connect 114 0 71 0;
#X connect 116 0 121 0;
#X connect 117 0 123 0;
#X connect 118 0 119 0;
#X connect 118 1 170 0;
#X connect 119 0 173 0;
#X connect 120 0 134 0;
#X connect 121 0 122 0;
#X connect 122 0 120 0;
#X connect 123 0 116 0;
#X connect 125 0 33 0;
#X connect 125 0 16 0;
#X connect 125 0 43 0;
#X connect 126 0 125 0;
#X connect 127 0 126 0;
#X connect 127 1 152 0;
#X connect 128 0 129 0;
#X connect 129 0 117 0;
#X connect 130 0 131 0;
#X connect 131 0 117 0;
#X connect 132 0 135 0;
#X connect 133 0 136 0;
#X connect 134 0 132 0;
#X connect 134 1 132 1;
#X connect 135 0 133 0;
#X connect 135 1 133 1;
#X connect 136 0 138 0;
#X connect 136 0 140 0;
#X connect 136 0 141 0;
#X connect 137 0 139 0;
#X connect 138 0 137 1;
#X connect 138 1 137 0;
#X connect 139 0 140 1;
#X connect 140 0 141 1;
#X connect 141 0 127 0;
#X connect 142 0 143 0;
#X connect 142 1 146 0;
#X connect 143 0 144 0;
#X connect 144 0 145 0;
#X connect 145 0 69 0;
#X connect 146 0 143 1;
#X connect 148 0 133 0;
#X connect 150 0 151 0;
#X connect 151 0 154 0;
#X connect 152 0 125 0;
#X connect 152 1 153 0;
#X connect 153 0 125 0;
#X connect 154 0 132 0;
#X connect 155 0 33 0;
#X connect 156 0 16 0;
#X connect 157 0 43 0;
#X connect 166 0 172 0;
#X connect 167 0 69 0;
#X connect 168 0 67 0;
#X connect 168 0 68 0;
#X connect 169 0 2 1;
#X connect 170 0 119 1;
#X connect 172 0 168 0;
#X connect 172 1 167 0;
#X connect 173 0 150 0;
#X coords 0 -1 1 1 136 136 2 100 100;
