#N canvas 4 64 1920 966 12;
#X obj 425 150 ctlin;
#X obj 425 208 spigot;
#X text 422 128 volume;
#X obj 498 439 loadbang;
#X obj 425 402 * -1;
#X obj 425 433 pow 2;
#X obj 425 463 * -100;
#X obj 425 372 moses;
#X obj 478 404 * 12;
#X msg 425 492 set \$1;
#X obj 101 101 else/level~;
#A saved 0.102362;
#X obj 425 296 / 127;
#X obj 425 321 * 2;
#X obj 425 344 - 1;
#X msg 497 465 0;
#X obj 102 44 inlet~;
#X obj 107 365 outlet~;
#X obj 34 101 else/level~;
#A saved 0.102362;
#X obj 33 44 inlet~;
#X obj 38 365 outlet~;
#X obj 425 179 == 58;
#X connect 0 0 1 0;
#X connect 0 1 20 0;
#X connect 1 0 11 0;
#X connect 3 0 14 0;
#X connect 4 0 5 0;
#X connect 5 0 6 0;
#X connect 6 0 9 0;
#X connect 7 0 4 0;
#X connect 7 1 8 0;
#X connect 8 0 9 0;
#X connect 9 0 10 0;
#X connect 9 0 17 0;
#X connect 10 0 16 0;
#X connect 11 0 12 0;
#X connect 12 0 13 0;
#X connect 13 0 7 0;
#X connect 14 0 9 0;
#X connect 15 0 10 0;
#X connect 17 0 19 0;
#X connect 18 0 17 0;
#X connect 20 0 1 1;
#X coords 0 -1 1 1 62 72 2 100 100;
