#N canvas 4 15 1920 966 10;
#X declare -path images;
#X obj 975 682 outlet~;
#X obj 993 617 vline~;
#X obj 975 647 *~;
#X obj 993 207 inlet;
#X obj 974 207 bng 16 250 50 0 empty empty empty 0 -8 0 10 #fcfcfc #000000 #000000;
#X obj 1311 91 ctlin;
#X obj 1311 147 spigot;
#X floatatom 1312 220 5 0 127 0 - - - 0;
#X listbox 1003 578 20 0 0 0 - - - 0;
#X listbox 704 183 31 0 0 0 - - - 0;
#X obj 704 205 unpack f f f f f f f f;
#X obj 501 190 inlet;
#X obj 501 214 sel 0 1 2 3 4 5 6 7;
#X obj 609 286 f 0;
#X obj 641 288 f 0;
#X obj 672 289 f 0;
#X obj 703 290 f 0;
#X obj 733 287 f 0;
#X obj 764 288 f 0;
#X obj 796 290 f 0;
#X obj 822 290 f 0;
#X floatatom 710 337 5 0 0 0 - - - 0;
#X obj 856 291 bng 16 250 50 0 empty empty empty 0 -8 0 10 #fcfcfc #000000 #000000;
#X text 877 290 pause, f 6;
#X obj 1005 449 tgl 16 0 empty empty empty 0 -8 0 10 #fcfcfc #000000 #000000 0 1;
#X obj 993 470 spigot;
#X obj 993 498 bng 16 250 50 0 empty empty empty 0 -8 0 10 #fcfcfc #000000 #000000;
#X obj 1044 398 loadbang;
#X msg 1044 420 1;
#X obj 1312 193 spigot;
#X obj 1325 171 r mode;
#X obj 611 396 env~;
#X floatatom 611 421 6 0 0 0 - - - 0;
#X obj 941 683 env~;
#X floatatom 941 703 6 0 0 0 - - - 0;
#X obj 704 158 inlet;
#X floatatom 1162 225 5 0 0 0 - - - 0;
#X obj 1162 70 ctlin;
#X obj 1162 126 spigot;
#X obj 1155 394 / 127;
#X obj 1162 198 spigot;
#X obj 1174 171 r mode;
#X floatatom 1162 152 5 0 127 0 - - - 0;
#X msg 993 545 1 \$2 \, 0 \$3 \$2;
#X obj 993 521 pack 0 0 0;
#X obj 1231 283 expr $f1-$f2;
#X obj 1312 283 expr $f1+$f2;
#X obj 1312 254 t b f;
#X obj 1155 325 else/rand.f 0 127, f 27;
#X obj 1155 349 max 0;
#X obj 1155 370 min 127;
#X obj 1158 450 hsl 136 16 0 500 0 0 empty empty empty -2 -8 0 10 #fcfcfc #000000 #000000 0 1;
#X obj 1505 90 ctlin;
#X obj 1505 146 spigot;
#X floatatom 1504 224 5 0 127 0 - - - 0;
#X obj 1506 199 spigot;
#X obj 1519 170 r mode;
#X floatatom 1430 249 5 0 0 0 - - - 0;
#X obj 1430 94 ctlin;
#X obj 1430 150 spigot;
#X obj 1353 396 / 127;
#X obj 1430 222 spigot;
#X obj 1442 195 r mode;
#X floatatom 1430 174 5 0 127 0 - - - 0;
#X obj 1429 285 expr $f1-$f2;
#X obj 1510 285 expr $f1+$f2;
#X obj 1506 253 t b f;
#X obj 1353 327 else/rand.f 0 127, f 27;
#X obj 1353 351 max 0;
#X obj 1353 372 min 127;
#X obj 1356 452 hsl 136 16 0 500 0 0 empty empty empty -2 -8 0 10 #fcfcfc #000000 #000000 0 1;
#X text 1342 55 Attack/Release;
#X obj 1353 421 * 500;
#X obj 1155 419 * 500;
#X obj 1324 118 == 21;
#X obj 1005 420 del 2;
#X obj 993 388 del 1;
#X obj 611 364 stocaondesemplici;
#X obj 1088 197 s attgui_\$0;
#X obj 1216 193 s attrandgui_\$0;
#X obj 1355 221 s relgui_\$0;
#X obj 1554 199 s relrandgui_\$0;
#X text 136 1 rand;
#X text 78 27 att;
#X text 77 61 rel;
#X obj 111 -63 r attgui_\$0;
#X obj 120 -38 r relgui_\$0;
#X obj 228 -50 r attrandgui_\$0;
#X obj 241 -26 r relrandgui_\$0;
#X obj 1355 246 r guirel_\$0;
#X obj 1088 216 r guiatt_\$0;
#X obj 1214 218 r guiattrand_\$0;
#X obj 1541 226 r guirelrand_\$0;
#X obj 77 181 s guirel_\$0;
#X obj 62 147 s guiatt_\$0;
#X obj 203 129 s guiattrand_\$0;
#X obj 194 154 s guirelrand_\$0;
#X obj 1088 135 loadbang;
#X obj 1372 154 loadbang;
#X msg 1088 156 10;
#X msg 1372 175 10;
#X obj 4 -177 ctlin;
#X obj 4 -121 spigot;
#X obj 4 -101 / 127;
#X floatatom 3 -21 5 0 0 0 - - - 0;
#X obj 17 -150 == 16;
#X obj 4 -82 * 4;
#X obj 3 -42 expr round($f1);
#X obj 4 -62 + 0;
#X obj 1175 97 == 17;
#X obj 1518 117 == 22;
#X obj 1443 121 == 18;
#X obj 135 53 else/knob 31 0 127 0 0 empty empty #dfdfdf #7c7c7c black 0 0 0 0 1 320 0 0 0 empty empty 0 12 6 -15 0 1 0 0 1 1;
#X obj 101 53 else/knob 31 0 127 0 0 empty empty #dfdfdf #7c7c7c black 0 0 0 0 1 320 0 0 0 empty empty 0 12 6 -15 0 1 0 0 1 1;
#X obj 135 19 else/knob 31 0 127 0 0 empty empty #dfdfdf #7c7c7c black 0 0 0 0 1 320 0 0 0 empty empty 0 12 6 -15 0 1 0 0 1 1;
#X obj 101 19 else/knob 31 0 127 0 0 empty empty #dfdfdf #7c7c7c black 0 0 0 0 1 320 0 0 0 empty empty 0 12 6 -15 0 1 0 0 1 1;
#X obj 13 23 else/knob 57 0 3 0 0 empty empty #dfdfdf #7c7c7c black 0 0 4 1 1 320 0 0 0 empty empty 0 12 6 -15 0 1 1 0 1 1;
#X obj 490 -133 declare -path images;
#X text 23 6 shape;
#X connect 1 0 2 1;
#X connect 2 0 0 0;
#X connect 2 0 33 0;
#X connect 3 0 4 0;
#X connect 3 0 48 0;
#X connect 3 0 67 0;
#X connect 3 0 76 0;
#X connect 5 0 6 0;
#X connect 5 1 74 0;
#X connect 6 0 29 0;
#X connect 7 0 47 0;
#X connect 9 0 10 0;
#X connect 10 0 13 1;
#X connect 10 1 14 1;
#X connect 10 2 15 1;
#X connect 10 3 16 1;
#X connect 10 4 17 1;
#X connect 10 5 18 1;
#X connect 10 6 19 1;
#X connect 10 7 20 1;
#X connect 11 0 12 0;
#X connect 12 0 13 0;
#X connect 12 1 14 0;
#X connect 12 2 15 0;
#X connect 12 3 16 0;
#X connect 12 4 17 0;
#X connect 12 5 18 0;
#X connect 12 6 19 0;
#X connect 12 7 20 0;
#X connect 12 8 22 0;
#X connect 13 0 21 0;
#X connect 14 0 21 0;
#X connect 15 0 21 0;
#X connect 16 0 21 0;
#X connect 17 0 21 0;
#X connect 18 0 21 0;
#X connect 19 0 21 0;
#X connect 20 0 21 0;
#X connect 21 0 77 1;
#X connect 22 0 75 0;
#X connect 22 0 24 0;
#X connect 24 0 25 1;
#X connect 25 0 26 0;
#X connect 26 0 44 0;
#X connect 27 0 28 0;
#X connect 28 0 24 0;
#X connect 29 0 7 0;
#X connect 29 0 79 0;
#X connect 30 0 29 1;
#X connect 31 0 32 0;
#X connect 33 0 34 0;
#X connect 35 0 9 0;
#X connect 36 0 45 0;
#X connect 36 0 46 0;
#X connect 37 0 38 0;
#X connect 37 1 109 0;
#X connect 38 0 42 0;
#X connect 39 0 73 0;
#X connect 40 0 36 0;
#X connect 40 0 78 0;
#X connect 41 0 40 1;
#X connect 42 0 40 0;
#X connect 43 0 8 0;
#X connect 43 0 1 0;
#X connect 44 0 43 0;
#X connect 45 0 48 1;
#X connect 46 0 48 2;
#X connect 47 0 45 0;
#X connect 47 0 46 0;
#X connect 47 1 45 1;
#X connect 47 1 46 1;
#X connect 48 0 49 0;
#X connect 49 0 50 0;
#X connect 50 0 39 0;
#X connect 51 0 44 1;
#X connect 52 0 53 0;
#X connect 52 1 110 0;
#X connect 53 0 55 0;
#X connect 54 0 66 0;
#X connect 55 0 54 0;
#X connect 55 0 81 0;
#X connect 56 0 55 1;
#X connect 57 0 64 0;
#X connect 57 0 65 0;
#X connect 58 0 59 0;
#X connect 58 1 111 0;
#X connect 59 0 63 0;
#X connect 60 0 72 0;
#X connect 61 0 57 0;
#X connect 61 0 80 0;
#X connect 62 0 61 1;
#X connect 63 0 61 0;
#X connect 64 0 67 1;
#X connect 65 0 67 2;
#X connect 66 0 64 0;
#X connect 66 0 65 0;
#X connect 66 1 64 1;
#X connect 66 1 65 1;
#X connect 67 0 68 0;
#X connect 68 0 69 0;
#X connect 69 0 60 0;
#X connect 70 0 44 2;
#X connect 72 0 70 0;
#X connect 73 0 51 0;
#X connect 74 0 6 1;
#X connect 75 0 24 0;
#X connect 76 0 25 0;
#X connect 77 0 2 0;
#X connect 77 0 31 0;
#X connect 85 0 115 0;
#X connect 86 0 113 0;
#X connect 87 0 114 0;
#X connect 88 0 112 0;
#X connect 89 0 57 0;
#X connect 90 0 36 0;
#X connect 91 0 7 0;
#X connect 92 0 54 0;
#X connect 97 0 99 0;
#X connect 98 0 100 0;
#X connect 99 0 78 0;
#X connect 100 0 80 0;
#X connect 101 0 102 0;
#X connect 101 1 105 0;
#X connect 102 0 103 0;
#X connect 103 0 106 0;
#X connect 104 0 116 0;
#X connect 105 0 102 1;
#X connect 106 0 108 0;
#X connect 107 0 104 0;
#X connect 108 0 107 0;
#X connect 109 0 38 1;
#X connect 110 0 53 1;
#X connect 111 0 59 1;
#X connect 112 0 96 0;
#X connect 113 0 93 0;
#X connect 114 0 95 0;
#X connect 115 0 94 0;
#X connect 116 0 77 0;
#X coords 0 -1 1 1 180 90 2 0 0;
