#N struct 1197-slot float x float y float slotsize float color float width float bordercolor;
#N canvas 723 0 1920 966 12;
#X obj 268 217 stocaosc;
#X obj 594 38 stocatempo, f 20;
#X obj 33 70 tgl 19 0 empty empty empty 0 -10 0 12 #0e4345 #00faff #000000 0 1;
#X obj 77 100 sel 0;
#X obj 29 100 sel 1;
#X obj 29 130 s on;
#X obj 77 131 s off;
#X text 60 68 accensione;
#X obj 30 277 s mode;
#X obj 30 220 stocamode, f 10;
#X text 83 243 0 per sampler;
#X text 82 262 1 per osc;
#X obj 318 37 stocasequencerosc;
#X obj 30 250 tgl 19 0 empty empty empty 0 -10 0 12 #0e4345 #00faff #000000 0 1;
#X obj 319 308 stocavolumeosc;
#X obj 653 812 dac~, f 5;
#X obj 30 41 stocaonoff;
#X text 29 194 modalità edit;
#X obj 725 380 stocafiltribrownsamp;
#X obj 589 18 bng 19 250 50 0 empty empty empty 0 -10 0 12 #0e4345 #00faff #000000;
#X obj 299 37 bng 19 250 50 0 empty empty empty 0 -10 0 12 #0e4345 #00faff #000000;
#X obj 218 152 stocascale;
#X obj 207 379 stocafiltribrownosc;
#X obj 207 438 stocadelayosc;
#X obj 725 440 stocadelaysamp;
#X obj 549 507 stocalowpassosc;
#X obj 768 509 stocalowpasssamp;
#X obj 658 598 stocamaster;
#X obj 207 507 env~;
#X floatatom 207 527 4 0 0 0 - - - 0;
#X obj 1192 508 env~;
#X floatatom 1192 527 4 0 0 0 - - - 0;
#X obj 653 671 else/meter2~;
#X obj 731 36 stocadrumseq;
#X obj 727 18 bng 19 250 50 0 empty empty empty 0 -10 0 12 #0e4345 #00faff #000000;
#X floatatom 697 812 5 0 0 0 - - - 0;
#X obj 788 236 stocasamplergui;
#X obj 725 308 stocavolumesamp;
#X connect 0 0 14 0;
#X connect 1 0 19 0;
#X connect 1 1 23 1;
#X connect 1 2 36 0;
#X connect 1 3 34 0;
#X connect 2 0 3 0;
#X connect 2 0 4 0;
#X connect 3 0 6 0;
#X connect 4 0 5 0;
#X connect 9 0 13 0;
#X connect 12 0 0 2;
#X connect 12 1 0 0;
#X connect 13 0 8 0;
#X connect 14 0 22 0;
#X connect 16 0 2 0;
#X connect 18 0 24 0;
#X connect 19 0 20 0;
#X connect 20 0 21 0;
#X connect 20 0 12 0;
#X connect 21 0 0 1;
#X connect 22 0 23 0;
#X connect 23 0 25 0;
#X connect 23 0 28 0;
#X connect 23 1 25 1;
#X connect 24 0 30 0;
#X connect 24 0 26 0;
#X connect 24 1 26 1;
#X connect 25 0 27 0;
#X connect 25 1 27 1;
#X connect 26 0 27 0;
#X connect 26 1 27 1;
#X connect 27 0 32 0;
#X connect 27 1 32 1;
#X connect 28 0 29 0;
#X connect 30 0 31 0;
#X connect 32 0 15 0;
#X connect 32 1 15 1;
#X connect 32 2 35 0;
#X connect 33 0 36 1;
#X connect 34 0 33 0;
#X connect 36 0 37 0;
#X connect 36 1 24 1;
#X connect 37 0 18 0;
