#N canvas 4 64 1920 966 12;
#X obj 46 186 lop~;
#X obj 194 188 lop~;
#X obj 35 118 inlet~;
#X obj 200 117 inlet~;
#X obj 41 246 outlet~;
#X obj 202 250 outlet~;
#X obj 44 48 loadbang;
#X msg 44 81 20000;
#X obj 122 -78 spigot;
#X obj 121 -133 ctlin;
#X obj 122 -52 / 127;
#X floatatom 125 68 5 0 0 0 - - - 0;
#X obj 129 -104 == 59;
#X obj 126 11 expr pow($f1 \, 0.5);
#X obj 126 41 expr 20 * pow(1000 \, $f1);
#X obj 175 -51 r mode;
#X obj 118 -26 spigot;
#X obj 105 126 else/knob 50 20 20000 1 20 empty empty à³Ù+Ï #7c7c7c black 0 0 0 0 1 320 0 0 20 empty empty 1 12 6 -15 0 1 0 0 1 1;
#X obj 44 217 hip~ 1;
#X obj 196 214 hip~ 1;
#X connect 0 0 18 0;
#X connect 1 0 19 0;
#X connect 2 0 0 0;
#X connect 3 0 1 0;
#X connect 6 0 7 0;
#X connect 7 0 17 0;
#X connect 8 0 10 0;
#X connect 9 0 8 0;
#X connect 9 1 12 0;
#X connect 10 0 16 0;
#X connect 11 0 17 0;
#X connect 12 0 8 1;
#X connect 13 0 14 0;
#X connect 14 0 11 0;
#X connect 15 0 16 1;
#X connect 16 0 13 0;
#X connect 17 0 0 1;
#X connect 17 0 1 1;
#X connect 18 0 4 0;
#X connect 19 0 5 0;
#X coords 0 -1 1 1 60 80 2 100 100;
