#N canvas 4 64 1920 966 12;
#X obj 630 598 else/scales 4;
#X listbox 629 633 26 0 0 0 - - - 0;
#X msg 625 531 C;
#X msg 515 531 2 2 1 2 2 2 1;
#X msg 449 530 pitch 1;
#X obj 514 484 loadbang;
#X obj 630 670 outlet;
#X obj 786 318 inlet;
#X obj 823 87 ctlin, f 6;
#X obj 823 139 spigot;
#X floatatom 822 207 5 0 127 0 - - - 0;
#X obj 981 40 ctlin;
#X obj 981 93 spigot;
#X floatatom 983 175 5 0 127 0 - - - 0;
#X obj 876 318 expr $f1-$f2;
#X obj 971 318 expr $f1+$f2;
#X obj 1023 266 t b f;
#X obj 786 349 else/rand.f 0 127, f 27;
#X obj 787 378 max 0;
#X obj 787 402 min 127;
#X floatatom 787 533 5 0 7 0 - - - 0;
#X obj 1021 208 loadbang;
#X msg 1023 231 0;
#X obj 787 509 expr round($f1);
#X obj 787 425 / 127;
#X obj 787 451 * 7;
#X msg 785 560 \$1;
#X obj 787 478 - 0.4;
#X obj 100 79 expr round($f1), f 16;
#X obj 101 12 / 127;
#X obj 101 36 * 7;
#X obj 100 58 - 0.4;
#X obj 824 242 f 0;
#X obj 101 235 + 0.4;
#X obj 101 260 / 7;
#X obj 101 284 * 127;
#X floatatom 775 224 5 0 0 0 - - - 0;
#X obj 984 208 f 0;
#X text 845 31 ottava;
#X obj 891 117 s randgui_\$0;
#X obj 226 76 r randgui_\$0;
#X obj 144 184 s guirand_\$0;
#X obj 889 142 r guirand_\$0;
#X obj 25 52 loadbang;
#X msg 25 78 4;
#X obj 838 115 == 20;
#X obj 996 69 == 24;
#X text 112 101 oct;
#X text 156 100 rand;
#X obj 104 119 else/knob 42 0 7 0 0 empty empty #dfdfdf #7c7c7c black 0 0 8 1 1 320 0 0 0 empty empty 0 12 6 -15 0 1 1 0 1 1;
#X obj 152 119 else/knob 42 0 127 0 0 empty empty #dfdfdf #7c7c7c black 0 0 0 0 1 320 0 0 0 empty empty 0 12 6 -15 0 1 0 0 1 1;
#X obj 821 186 spigot;
#X obj 830 160 r mode;
#X obj 993 149 spigot;
#X obj 1036 125 r mode;
#X connect 0 0 1 0;
#X connect 1 0 6 0;
#X connect 2 0 0 0;
#X connect 3 0 0 0;
#X connect 4 0 0 0;
#X connect 5 0 4 0;
#X connect 5 0 3 0;
#X connect 5 0 2 0;
#X connect 7 0 17 0;
#X connect 7 0 0 0;
#X connect 8 0 9 0;
#X connect 8 1 45 0;
#X connect 9 0 51 0;
#X connect 10 0 29 0;
#X connect 10 0 32 0;
#X connect 11 0 12 0;
#X connect 11 1 46 0;
#X connect 12 0 53 0;
#X connect 13 0 39 0;
#X connect 13 0 37 0;
#X connect 14 0 17 1;
#X connect 15 0 17 2;
#X connect 16 0 14 0;
#X connect 16 0 15 0;
#X connect 16 1 14 1;
#X connect 16 1 15 1;
#X connect 17 0 18 0;
#X connect 18 0 19 0;
#X connect 19 0 24 0;
#X connect 20 0 26 0;
#X connect 21 0 22 0;
#X connect 22 0 16 0;
#X connect 23 0 20 0;
#X connect 24 0 25 0;
#X connect 25 0 27 0;
#X connect 26 0 0 1;
#X connect 27 0 23 0;
#X connect 28 0 49 0;
#X connect 29 0 30 0;
#X connect 30 0 31 0;
#X connect 31 0 28 0;
#X connect 32 0 14 0;
#X connect 32 0 15 0;
#X connect 33 0 34 0;
#X connect 34 0 35 0;
#X connect 35 0 36 0;
#X connect 36 0 32 0;
#X connect 37 0 16 0;
#X connect 40 0 50 0;
#X connect 42 0 37 0;
#X connect 43 0 44 0;
#X connect 44 0 49 0;
#X connect 45 0 9 1;
#X connect 46 0 12 1;
#X connect 49 0 33 0;
#X connect 50 0 41 0;
#X connect 51 0 10 0;
#X connect 52 0 51 1;
#X connect 53 0 13 0;
#X connect 54 0 53 1;
#X coords 0 -1 1 1 100 65 2 100 100;
