#N struct 1211-slot float x float y float slotsize float color float width float bordercolor;
#N canvas 4 8 1920 966 12;
#X obj 592 67 until;
#X msg 591 43 8;
#X obj 592 205 until;
#X obj 592 234 f;
#X obj 690 220 + 1;
#X obj 614 125 f;
#X obj 678 116 + 1;
#X obj 678 140 mod 8;
#X obj 593 94 t b b;
#X obj 645 378 list prepend;
#X obj 575 406 list prepend;
#X obj 594 282 t b a;
#X obj 145 105 else/drum.seq 8 16 20 0 0 0 0 0 0 0 0 0 0 0 0;
#X msg 192 48 slots 16;
#X obj 192 22 loadbang;
#X obj 144 47 inlet;
#X obj 473 162 bng 19 250 50 0 empty empty empty 0 -10 0 12 #131255 #00faff #000000;
#X obj 613 148 + 1;
#X obj 133 23 bng 19 250 50 0 empty empty empty 0 -10 0 12 #fcfcfc #000000 #000000;
#X obj 227 617 +;
#X obj 159 354 unpack f f;
#X obj 226 419 t f b;
#X obj 174 687 pack f f;
#X obj 227 647 mod 2;
#X obj 275 419 random 100;
#X obj 276 585 expr $f1<$f2;
#X floatatom 357 539 5 0 100 0 - - - 0;
#X floatatom 397 540 5 0 100 0 - - - 0;
#X floatatom 437 540 5 0 100 0 - - - 0;
#X floatatom 477 540 5 0 100 0 - - - 0;
#X floatatom 517 540 5 0 100 0 - - - 0;
#X floatatom 556 540 5 0 100 0 - - - 0;
#X floatatom 595 540 5 0 100 0 - - - 0;
#X floatatom 635 539 5 0 100 0 - - - 0;
#X obj 560 311 random 100;
#X obj 549 353 expr $f1<$f2;
#X obj 314 474 sel 1 2 3 4 5 6 7 8, f 32;
#X obj 225 388 f 0;
#X text 466 142 init;
#X text 465 213 dens;
#X obj 894 92 ctlin;
#X obj 980 219 == 19;
#X obj 1024 220 == 23;
#X obj 1070 220 == 27;
#X obj 1162 222 == 49;
#X obj 1205 221 == 53;
#X obj 1250 222 == 57;
#X obj 1296 221 == 61;
#X obj 1115 220 == 31;
#X floatatom 1062 145 4 0 0 0 - - - 0;
#X obj 964 294 spigot;
#X obj 1038 296 spigot;
#X obj 1111 297 spigot;
#X obj 1182 297 spigot;
#X obj 1252 297 spigot;
#X obj 1325 297 spigot;
#X obj 1403 296 spigot;
#X obj 894 296 spigot;
#X floatatom 893 247 5 0 0 0 - - - 0;
#X obj 893 155 / 127;
#X obj 893 220 spigot;
#X obj 941 127 r mode;
#X msg 939 181 1;
#X msg 972 181 0;
#X obj 941 152 sel 0;
#X text 1136 152 scrittura probabilità;
#X obj 893 184 * 100;
#X obj 172 727 outlet;
#X msg 593 176 16;
#X obj 690 244 mod 16;
#X obj 588 258 + 1;
#X obj 892 427 s randgui_\$0;
#X obj 893 396 pack f f f f f f f f, f 73;
#X obj 6 6 r randgui_\$0;
#X obj 6 35 unpack f f f f f f f f, f 12;
#X obj -15 360 pack f f f f f f f f, f 12;
#X obj -15 403 s guirand_\$0;
#X obj 575 441 r guirand_\$0;
#X obj 575 465 unpack f f f f f f f f, f 12;
#X obj 158 390 t f b f;
#X obj 964 320 t b f;
#X obj 1038 321 t b f;
#X obj 1109 322 t b f;
#X obj 1183 323 t b f;
#X obj 1252 321 t b f;
#X obj 1326 322 t b f;
#X obj 1406 322 t b f;
#X obj 469 184 else/knob 27 0 100 0 0 empty empty #dfdfdf #7c7c7c black 0 0 0 0 1 320 0 0 0 empty empty 0 12 6 -15 0 1 0 0 1 1;
#X obj 107 246 hsl 30 19 0 100 0 0 empty empty empty -2 -10 0 12 #551312 #ff0400 #ff0400 0 1;
#X obj 107 226 hsl 30 19 0 100 0 0 empty empty empty -2 -10 0 12 #551312 #ff0400 #ff0400 0 1;
#X obj 107 206 hsl 30 19 0 100 0 0 empty empty empty -2 -10 0 12 #551312 #ff0400 #ff0400 0 1;
#X obj 107 186 hsl 30 19 0 100 0 0 empty empty empty -2 -10 0 12 #551312 #ff0400 #ff0400 0 1;
#X obj 107 166 hsl 30 19 0 100 0 0 empty empty empty -2 -10 0 12 #551312 #ff0400 #ff0400 0 1;
#X obj 107 146 hsl 30 19 0 100 0 0 empty empty empty -2 -10 0 12 #551312 #ff0400 #ff0400 0 1;
#X obj 107 126 hsl 30 19 0 100 0 0 empty empty empty -2 -10 0 12 #551312 #ff0400 #ff0400 0 1;
#X obj 107 106 hsl 30 19 0 100 0 0 empty empty empty -2 -10 0 12 #551312 #ff0400 #ff0400 0 1;
#X obj 0 300 t b f, f 2;
#X obj -18 300 t b f, f 2;
#X obj 37 300 t b f, f 2;
#X obj 19 300 t b f, f 2;
#X obj 55 300 t b f, f 2;
#X obj 92 300 t b f, f 2;
#X obj 74 300 t b f, f 2;
#X connect 0 0 8 0;
#X connect 1 0 0 0;
#X connect 2 0 3 0;
#X connect 3 0 4 0;
#X connect 3 0 70 0;
#X connect 4 0 69 0;
#X connect 5 0 6 0;
#X connect 5 0 17 0;
#X connect 6 0 7 0;
#X connect 7 0 5 1;
#X connect 8 0 68 0;
#X connect 8 1 5 0;
#X connect 9 0 10 1;
#X connect 10 0 12 0;
#X connect 11 0 34 0;
#X connect 11 1 9 0;
#X connect 12 0 20 0;
#X connect 13 0 12 0;
#X connect 14 0 13 0;
#X connect 15 0 12 0;
#X connect 16 0 1 0;
#X connect 17 0 9 1;
#X connect 18 0 12 0;
#X connect 19 0 23 0;
#X connect 20 0 79 0;
#X connect 20 1 37 1;
#X connect 21 0 19 0;
#X connect 21 1 24 0;
#X connect 22 0 67 0;
#X connect 23 0 22 1;
#X connect 24 0 25 0;
#X connect 25 0 19 1;
#X connect 26 0 25 1;
#X connect 27 0 25 1;
#X connect 28 0 25 1;
#X connect 29 0 25 1;
#X connect 30 0 25 1;
#X connect 31 0 25 1;
#X connect 32 0 25 1;
#X connect 33 0 25 1;
#X connect 34 0 35 0;
#X connect 35 0 10 0;
#X connect 36 0 26 0;
#X connect 36 1 27 0;
#X connect 36 2 28 0;
#X connect 36 3 29 0;
#X connect 36 4 30 0;
#X connect 36 5 31 0;
#X connect 36 6 32 0;
#X connect 36 7 33 0;
#X connect 37 0 21 0;
#X connect 40 0 59 0;
#X connect 40 1 49 0;
#X connect 41 0 57 1;
#X connect 42 0 50 1;
#X connect 43 0 51 1;
#X connect 44 0 53 1;
#X connect 45 0 54 1;
#X connect 46 0 55 1;
#X connect 47 0 56 1;
#X connect 48 0 52 1;
#X connect 49 0 41 0;
#X connect 49 0 42 0;
#X connect 49 0 43 0;
#X connect 49 0 48 0;
#X connect 49 0 44 0;
#X connect 49 0 45 0;
#X connect 49 0 46 0;
#X connect 49 0 47 0;
#X connect 50 0 80 0;
#X connect 51 0 81 0;
#X connect 52 0 82 0;
#X connect 53 0 83 0;
#X connect 54 0 84 0;
#X connect 55 0 85 0;
#X connect 56 0 86 0;
#X connect 57 0 72 0;
#X connect 58 0 57 0;
#X connect 58 0 50 0;
#X connect 58 0 51 0;
#X connect 58 0 52 0;
#X connect 58 0 53 0;
#X connect 58 0 54 0;
#X connect 58 0 55 0;
#X connect 58 0 56 0;
#X connect 59 0 66 0;
#X connect 60 0 58 0;
#X connect 61 0 64 0;
#X connect 62 0 60 1;
#X connect 63 0 60 1;
#X connect 64 0 62 0;
#X connect 64 1 63 0;
#X connect 66 0 60 0;
#X connect 68 0 2 0;
#X connect 69 0 3 1;
#X connect 70 0 11 0;
#X connect 72 0 71 0;
#X connect 73 0 74 0;
#X connect 74 0 95 0;
#X connect 74 1 94 0;
#X connect 74 2 93 0;
#X connect 74 3 92 0;
#X connect 74 4 91 0;
#X connect 74 5 90 0;
#X connect 74 6 89 0;
#X connect 74 7 88 0;
#X connect 75 0 76 0;
#X connect 77 0 78 0;
#X connect 78 0 26 0;
#X connect 78 1 27 0;
#X connect 78 2 28 0;
#X connect 78 3 29 0;
#X connect 78 4 30 0;
#X connect 78 5 31 0;
#X connect 78 6 32 0;
#X connect 78 7 33 0;
#X connect 79 0 22 0;
#X connect 79 1 37 0;
#X connect 79 2 36 0;
#X connect 80 0 72 0;
#X connect 80 1 72 1;
#X connect 81 0 72 0;
#X connect 81 1 72 2;
#X connect 82 0 72 0;
#X connect 82 1 72 3;
#X connect 83 0 72 0;
#X connect 83 1 72 4;
#X connect 84 0 72 0;
#X connect 84 1 72 5;
#X connect 85 0 72 0;
#X connect 85 1 72 6;
#X connect 86 0 72 0;
#X connect 86 1 72 7;
#X connect 87 0 35 1;
#X connect 88 0 101 0;
#X connect 89 0 102 0;
#X connect 90 0 100 0;
#X connect 91 0 98 0;
#X connect 92 0 99 0;
#X connect 93 0 96 0;
#X connect 94 0 97 0;
#X connect 95 0 75 0;
#X connect 96 0 75 0;
#X connect 96 1 75 2;
#X connect 97 0 75 0;
#X connect 97 1 75 1;
#X connect 98 0 75 0;
#X connect 98 1 75 4;
#X connect 99 0 75 0;
#X connect 99 1 75 3;
#X connect 100 0 75 0;
#X connect 100 1 75 5;
#X connect 101 0 75 0;
#X connect 101 1 75 7;
#X connect 102 0 75 0;
#X connect 102 1 75 6;
#X coords 0 -1 1 1 400 170 2 100 100;
