#N canvas 0 64 1920 966 10;
#X obj 497 271 cos~;
#X obj 717 271 expr~ ($v1 > 0.5)*2-1;
#X obj 597 271 expr~ ($v1*2)-1;
#X obj 867 271 expr~ abs($v1*2-1)*2-1;
#X text 517 221 sinusoide;
#X text 627 221 rampa;
#X text 727 221 quadra;
#X text 877 221 triangolare;
#X msg 201 285 1 0 0 0;
#X msg 261 285 0 1 0 0;
#X msg 321 285 0 0 1 0;
#X msg 381 285 0 0 0 1;
#X obj 201 245 sel 0 1 2 3;
#X obj 618 409 unpack f f f f;
#X obj 504 514 *~;
#X obj 604 514 *~;
#X obj 724 514 *~;
#X obj 874 524 *~;
#X obj 497 241 phasor~ 100;
#X obj 597 241 phasor~ 100;
#X obj 717 241 phasor~ 100;
#X obj 867 241 phasor~ 100;
#X obj 667 101 inlet;
#X obj 201 215 inlet;
#X msg 161 245 0;
#X obj 141 215 loadbang;
#X obj 667 131 mtof;
#X obj 724 774 outlet~;
#X obj 724 704 +~;
#X connect 0 0 14 0;
#X connect 1 0 16 0;
#X connect 2 0 15 0;
#X connect 3 0 17 0;
#X connect 8 0 13 0;
#X connect 9 0 13 0;
#X connect 10 0 13 0;
#X connect 11 0 13 0;
#X connect 12 0 8 0;
#X connect 12 1 9 0;
#X connect 12 2 10 0;
#X connect 12 3 11 0;
#X connect 13 0 14 1;
#X connect 13 1 15 1;
#X connect 13 2 16 1;
#X connect 13 3 17 1;
#X connect 14 0 28 0;
#X connect 15 0 28 0;
#X connect 16 0 28 0;
#X connect 17 0 28 0;
#X connect 18 0 0 0;
#X connect 19 0 2 0;
#X connect 20 0 1 0;
#X connect 21 0 3 0;
#X connect 22 0 26 0;
#X connect 23 0 12 0;
#X connect 24 0 12 0;
#X connect 25 0 24 0;
#X connect 26 0 18 0;
#X connect 26 0 19 0;
#X connect 26 0 20 0;
#X connect 26 0 21 0;
#X connect 28 0 27 0;
#X coords 0 0 1 1 80 60 0;
