#N canvas 0 64 1920 966 12;
#X declare -path samples;
#X obj 222 -10 inlet;
#X obj 303 9 inlet;
#X obj 530 29 declare -path samples;
#X obj 152 371 outlet~;
#X obj 234 18 outlet;
#X obj 222 48 stocasampler;
#X obj 101 101 else/level~;
#A saved -0.023622;
#X obj 163 101 else/level~;
#A saved 0.00787401;
#X obj 287 101 else/level~;
#A saved 0.11811;
#X obj 225 101 else/level~;
#A saved -0.133858;
#X obj 101 172 else/level~;
#A saved -0.559055;
#X obj 162 172 else/level~;
#A saved -0.244095;
#X obj 286 172 else/level~;
#A saved -0.181102;
#X obj 224 172 else/level~;
#A saved -0.543307;
#X obj 7 30 stocasamplerinput;
#X connect 0 0 4 0;
#X connect 0 0 5 0;
#X connect 1 0 5 1;
#X connect 5 0 6 0;
#X connect 5 1 7 0;
#X connect 5 2 9 0;
#X connect 5 3 8 0;
#X connect 5 4 10 0;
#X connect 5 5 11 0;
#X connect 5 6 13 0;
#X connect 5 7 12 0;
#X connect 6 0 3 0;
#X connect 7 0 3 0;
#X connect 8 0 3 0;
#X connect 9 0 3 0;
#X connect 10 0 3 0;
#X connect 11 0 3 0;
#X connect 12 0 3 0;
#X connect 13 0 3 0;
#X connect 14 0 6 0;
#X connect 14 1 7 0;
#X connect 14 2 9 0;
#X connect 14 3 8 0;
#X connect 14 4 10 0;
#X connect 14 5 11 0;
#X connect 14 6 13 0;
#X connect 14 7 12 0;
#X coords 0 -1 1 1 248 144 2 100 100;
