#N canvas 4 0 1920 966 12;
#X text 194 283 Fs;
#X text 415 229 F0;
#X floatatom 599 361 9 0 0 0 - - - 0;
#X text 545 363 dBGain;
#X floatatom 599 409 10 0 0 0 - - - 0;
#X text 581 408 A;
#X obj 599 386 expr pow(10 \, $f1/40);
#X floatatom 222 418 5 0 0 0 - - - 0;
#X text 198 395 w0;
#X floatatom 221 506 17 0 0 0 - - - 0;
#X text 176 506 alpha;
#X obj 225 340 expr 2*3.14159265 *$f2/$f1;
#X text 785 162 b0;
#X text 786 190 b1;
#X text 785 222 b2;
#X text 789 134 a0;
#X text 785 246 a1;
#X text 785 280 a2;
#X obj 1176 59 t b f;
#X obj 1380 349 pack f f f f f;
#X listbox 1362 421 51 0 0 0 - - - 0;
#X text 1438 392 coefficienti low shelv;
#X obj 1252 185 expr $f1/$f2;
#X obj 1330 220 expr $f1/$f2;
#X obj 1428 256 expr $f1/$f2;
#X obj 1531 283 expr -$f1/$f2;
#X obj 1678 306 expr -$f1/$f2;
#X text 361 391 S;
#X obj 221 472 expr sin($f1)/2*sqrt(($f3+pow($f3 \, -1))*(pow($f2 \, -1)-1)+2);
#X msg 224 311 48000;
#X obj 522 436 value Alo;
#X obj 395 371 loadbang;
#X msg 307 281 1000;
#X obj 372 310 t b f;
#X obj 394 441 t b f;
#X obj 599 438 t b f;
#X obj 1637 306 t b f;
#X obj 1386 255 t b f;
#X obj 1288 220 t b f;
#X obj 1211 185 t b f;
#X obj 43 471 value omegalol;
#X obj 221 545 value alphalo;
#X obj 821 132 expr (Alo+1)+(Alo-1)*cos(omegalol)+2*alphalo*sqrt(Alo);
#X obj 821 161 expr Alo*((Alo+1)-(Alo-1)*cos(omegalol)+2*alphalo*sqrt(Alo));
#X obj 821 191 expr 2*Alo*((Alo-1)-(Alo+1)*cos(omegalol));
#X obj 822 220 expr Alo*((Alo+1)-(Alo-1)*cos(omegalol)-2*alphalo*sqrt(Alo));
#X obj 824 248 expr -2*((Alo-1)+(Alo+1)*cos(omegalol));
#X obj 824 279 expr (Alo+1)+(Alo-1)*cos(omegalol)-2*alphalo*sqrt(Alo);
#X floatatom 394 420 5 0 0 0 - - - 0;
#X msg 395 397 0.8;
#X obj 532 300 loadbang;
#X msg 533 331 0;
#X obj 372 203 expr 100*pow(10 \, (2*$f1)/127);
#X floatatom 372 229 5 0 0 0 - - - 0;
#X obj 158 472 s low_\$0;
#X obj 325 546 s low_\$0;
#X obj 459 435 s low_\$0;
#X obj 741 99 r low_\$0;
#X obj 742 129 bng 19 250 50 0 empty empty empty 0 -10 0 12 #fcfcfc #000000 #000000;
#X obj 1386 390 outlet;
#X obj 371 178 inlet;
#X obj 599 300 inlet;
#X obj 599 327 expr log(0.1+$f1/64)*20;
#X obj 372 283 else/smooth;
#X msg 372 254 \$1 100;
#X obj 261 163 loadbang;
#X obj 265 191 t b b;
#X connect 2 0 6 0;
#X connect 4 0 30 0;
#X connect 4 0 35 0;
#X connect 4 0 56 0;
#X connect 6 0 4 0;
#X connect 7 0 28 0;
#X connect 7 0 40 0;
#X connect 7 0 54 0;
#X connect 9 0 41 0;
#X connect 9 0 55 0;
#X connect 11 0 7 0;
#X connect 18 0 22 0;
#X connect 18 0 23 0;
#X connect 18 0 24 0;
#X connect 18 0 25 0;
#X connect 18 0 26 0;
#X connect 18 1 22 1;
#X connect 18 1 23 1;
#X connect 18 1 24 1;
#X connect 18 1 25 1;
#X connect 18 1 26 1;
#X connect 19 0 20 0;
#X connect 19 0 59 0;
#X connect 22 0 39 0;
#X connect 23 0 38 0;
#X connect 24 0 37 0;
#X connect 25 0 19 0;
#X connect 26 0 36 0;
#X connect 28 0 9 0;
#X connect 29 0 11 0;
#X connect 31 0 49 0;
#X connect 32 0 33 0;
#X connect 33 0 11 0;
#X connect 33 1 11 1;
#X connect 34 0 28 0;
#X connect 34 1 28 1;
#X connect 35 0 28 0;
#X connect 35 1 28 2;
#X connect 36 0 19 0;
#X connect 36 1 19 1;
#X connect 37 0 19 0;
#X connect 37 1 19 4;
#X connect 38 0 19 0;
#X connect 38 1 19 3;
#X connect 39 0 19 0;
#X connect 39 1 19 2;
#X connect 42 0 18 0;
#X connect 43 0 22 0;
#X connect 44 0 23 0;
#X connect 45 0 24 0;
#X connect 46 0 25 0;
#X connect 47 0 26 0;
#X connect 48 0 34 0;
#X connect 49 0 48 0;
#X connect 50 0 51 0;
#X connect 51 0 2 0;
#X connect 52 0 53 0;
#X connect 53 0 64 0;
#X connect 57 0 58 0;
#X connect 58 0 42 0;
#X connect 58 0 43 0;
#X connect 58 0 44 0;
#X connect 58 0 45 0;
#X connect 58 0 46 0;
#X connect 58 0 47 0;
#X connect 60 0 52 0;
#X connect 61 0 62 0;
#X connect 62 0 2 0;
#X connect 63 0 33 0;
#X connect 64 0 63 0;
#X connect 65 0 66 0;
#X connect 66 0 32 0;
#X connect 66 1 29 0;
