#N canvas 952 0 958 956 12;
#X floatatom 183 119 5 0 0 0 - - - 0;
#X obj 840 586 noteout;
#X obj 462 358 f 0;
#X floatatom 462 389 5 0 0 0 - - - 0;
#X msg 840 523 \$1 0;
#X obj 840 557 unpack f f;
#X floatatom 841 474 5 0 0 0 - - - 0;
#X obj 845 365 noteout;
#X obj 845 332 unpack f f;
#X msg 844 298 \$1 127;
#X obj 504 224 sel 1;
#X obj 504 297 bng 19 250 50 0 empty empty empty 0 -10 0 12 #fcfcfc #000000 #000000;
#X obj 461 224 sel 0;
#X obj 548 224 sel 2;
#X obj 591 224 sel 3;
#X obj 636 224 sel 4;
#X obj 679 224 sel 5;
#X obj 723 223 sel 6;
#X obj 766 223 sel 7;
#X obj 461 297 bng 19 250 50 0 empty empty empty 0 -10 0 12 #fcfcfc #000000 #000000;
#X obj 548 298 bng 19 250 50 0 empty empty empty 0 -10 0 12 #fcfcfc #000000 #000000;
#X obj 593 299 bng 19 250 50 0 empty empty empty 0 -10 0 12 #fcfcfc #000000 #000000;
#X obj 635 300 bng 19 250 50 0 empty empty empty 0 -10 0 12 #fcfcfc #000000 #000000;
#X obj 679 301 bng 19 250 50 0 empty empty empty 0 -10 0 12 #fcfcfc #000000 #000000;
#X obj 723 302 bng 19 250 50 0 empty empty empty 0 -10 0 12 #fcfcfc #000000 #000000;
#X obj 766 301 bng 19 250 50 0 empty empty empty 0 -10 0 12 #fcfcfc #000000 #000000;
#X floatatom 844 259 5 0 0 0 - - - 0;
#X text 207 94 nota suonata;
#X text 345 387 nota precedente;
#X obj 462 434 sel 0;
#X obj 507 433 sel 1;
#X obj 552 433 sel 2;
#X obj 597 433 sel 3;
#X obj 642 433 sel 4;
#X obj 687 433 sel 5;
#X obj 731 433 sel 6;
#X obj 776 432 sel 7;
#X obj 407 440 r off;
#X text 574 172 reparto luci;
#X obj 70 239 inlet;
#X obj 185 64 inlet;
#X msg 461 259 3;
#X msg 504 257 6;
#X msg 548 259 9;
#X msg 591 258 12;
#X msg 636 258 15;
#X msg 679 256 18;
#X msg 723 257 21;
#X msg 766 259 24;
#X msg 462 479 3;
#X msg 507 477 6;
#X msg 552 476 9;
#X msg 597 477 12;
#X msg 642 476 15;
#X msg 687 476 18;
#X msg 731 477 21;
#X msg 776 475 24;
#X connect 0 0 2 1;
#X connect 0 0 10 0;
#X connect 0 0 12 0;
#X connect 0 0 13 0;
#X connect 0 0 14 0;
#X connect 0 0 15 0;
#X connect 0 0 16 0;
#X connect 0 0 17 0;
#X connect 0 0 18 0;
#X connect 2 0 3 0;
#X connect 3 0 29 0;
#X connect 3 0 30 0;
#X connect 3 0 31 0;
#X connect 3 0 32 0;
#X connect 3 0 33 0;
#X connect 3 0 34 0;
#X connect 3 0 35 0;
#X connect 3 0 36 0;
#X connect 4 0 5 0;
#X connect 5 0 1 0;
#X connect 5 1 1 1;
#X connect 6 0 4 0;
#X connect 8 0 7 0;
#X connect 8 1 7 1;
#X connect 9 0 8 0;
#X connect 10 0 42 0;
#X connect 12 0 41 0;
#X connect 13 0 43 0;
#X connect 14 0 44 0;
#X connect 15 0 45 0;
#X connect 16 0 46 0;
#X connect 17 0 47 0;
#X connect 18 0 48 0;
#X connect 26 0 9 0;
#X connect 29 0 49 0;
#X connect 30 0 50 0;
#X connect 31 0 51 0;
#X connect 32 0 52 0;
#X connect 33 0 53 0;
#X connect 34 0 54 0;
#X connect 35 0 55 0;
#X connect 36 0 56 0;
#X connect 37 0 49 0;
#X connect 37 0 50 0;
#X connect 37 0 51 0;
#X connect 37 0 53 0;
#X connect 37 0 54 0;
#X connect 37 0 55 0;
#X connect 37 0 56 0;
#X connect 37 0 52 0;
#X connect 39 0 2 0;
#X connect 40 0 0 0;
#X connect 41 0 9 0;
#X connect 41 0 19 0;
#X connect 42 0 9 0;
#X connect 42 0 11 0;
#X connect 43 0 9 0;
#X connect 43 0 20 0;
#X connect 44 0 9 0;
#X connect 44 0 21 0;
#X connect 45 0 9 0;
#X connect 45 0 22 0;
#X connect 46 0 9 0;
#X connect 46 0 23 0;
#X connect 47 0 9 0;
#X connect 47 0 24 0;
#X connect 48 0 9 0;
#X connect 48 0 25 0;
#X connect 49 0 4 0;
#X connect 50 0 4 0;
#X connect 51 0 4 0;
#X connect 52 0 4 0;
#X connect 53 0 4 0;
#X connect 54 0 4 0;
#X connect 55 0 4 0;
#X connect 56 0 4 0;
