#N canvas 952 0 1920 966 12;
#X obj 758 226 else/brown;
#X obj 756 172 tgl 19 0 empty empty empty 0 -10 0 12 #fcfcfc #000000 #000000 0 1;
#X obj 486 264 ctlin, f 6;
#X obj 486 316 spigot, f 7;
#X floatatom 546 364 5 0 127 0 - - - 0;
#X obj 613 164 ctlin;
#X obj 613 217 spigot;
#X floatatom 627 280 5 0 127 0 - - - 0;
#X floatatom 757 299 5 0 0 0 - - - 0;
#X obj 758 276 - 0.5;
#X obj 758 199 else/tempo -ms 100;
#X text 614 139 rand;
#X obj 514 693 hsl 162 19 0 127 0 0 empty empty empty -2 -10 0 12 #fcfcfc #000000 #000000 0 1;
#X obj 511 635 * -1;
#X obj 617 661 expr 127-($f1-127);
#X obj 511 602 moses 0;
#X obj 557 633 moses 128;
#X obj 754 102 r off;
#X msg 756 139 0;
#X obj 797 101 r on;
#X msg 799 138 1;
#X obj 631 338 *;
#X obj 547 395 +;
#X obj 757 324 t b f;
#X obj 631 364 t b f;
#X floatatom 547 421 5 0 0 0 - - - 0;
#X obj 577 482 f 0;
#X obj 570 452 t f b;
#X floatatom 577 509 5 0 0 0 - - - 0;
#X obj 549 540 !=;
#X obj 511 571 spigot;
#X obj 509 757 else/smooth;
#X msg 511 727 \$1 200;
#X obj 488 342 spigot;
#X obj 625 255 spigot;
#X obj 630 305 f 0;
#X obj 711 102 sel 0;
#X obj 509 783 / 127;
#X obj 509 810 outlet;
#X obj 436 322 inlet;
#X obj 559 184 inlet;
#X obj 663 313 outlet;
#X obj 437 349 / 100;
#X obj 437 373 * 127;
#X obj 619 398 / 127;
#X obj 619 422 * 100;
#X obj 619 447 outlet;
#X obj 758 251 / 80;
#X text 474 243 stereo;
#X obj 501 292 == 48;
#X obj 628 193 == 52;
#X obj 550 261 r mode;
#X msg 548 315 1;
#X msg 581 315 0;
#X obj 550 286 sel 0;
#X obj 684 170 r mode;
#X msg 682 224 1;
#X msg 715 224 0;
#X obj 684 195 sel 0;
#X connect 0 0 47 0;
#X connect 1 0 10 0;
#X connect 2 0 3 0;
#X connect 2 1 49 0;
#X connect 3 0 33 0;
#X connect 4 0 22 0;
#X connect 4 0 44 0;
#X connect 5 0 6 0;
#X connect 5 1 50 0;
#X connect 6 0 34 0;
#X connect 7 0 35 0;
#X connect 7 0 41 0;
#X connect 8 0 23 0;
#X connect 9 0 8 0;
#X connect 10 0 0 0;
#X connect 12 0 32 0;
#X connect 13 0 12 0;
#X connect 14 0 12 0;
#X connect 15 0 13 0;
#X connect 15 1 16 0;
#X connect 16 0 12 0;
#X connect 16 1 14 0;
#X connect 17 0 18 0;
#X connect 18 0 1 0;
#X connect 19 0 20 0;
#X connect 20 0 1 0;
#X connect 21 0 24 0;
#X connect 22 0 25 0;
#X connect 23 0 21 0;
#X connect 23 1 21 1;
#X connect 24 0 22 0;
#X connect 24 1 22 1;
#X connect 25 0 27 0;
#X connect 25 0 29 0;
#X connect 25 0 30 0;
#X connect 26 0 28 0;
#X connect 27 0 26 1;
#X connect 27 1 26 0;
#X connect 28 0 29 1;
#X connect 29 0 30 1;
#X connect 30 0 15 0;
#X connect 31 0 37 0;
#X connect 32 0 31 0;
#X connect 33 0 4 0;
#X connect 34 0 7 0;
#X connect 35 0 21 0;
#X connect 35 0 36 0;
#X connect 36 0 18 0;
#X connect 36 1 20 0;
#X connect 37 0 38 0;
#X connect 39 0 42 0;
#X connect 40 0 35 0;
#X connect 42 0 43 0;
#X connect 43 0 22 0;
#X connect 44 0 45 0;
#X connect 45 0 46 0;
#X connect 47 0 9 0;
#X connect 49 0 3 1;
#X connect 50 0 6 1;
#X connect 51 0 54 0;
#X connect 52 0 33 1;
#X connect 53 0 33 1;
#X connect 54 0 52 0;
#X connect 54 1 53 0;
#X connect 55 0 58 0;
#X connect 56 0 34 1;
#X connect 57 0 34 1;
#X connect 58 0 56 0;
#X connect 58 1 57 0;
