#N canvas 952 0 958 956 12;
#X text 200 261 Fs;
#X text 418 169 F0;
#X text 546 294 dBGain;
#X floatatom 599 349 10 0 0 0 - - - 0;
#X text 578 349 A;
#X obj 599 322 expr pow(10 \, $f1/40);
#X floatatom 224 381 5 0 0 0 - - - 0;
#X text 197 379 w0;
#X floatatom 224 437 17 0 0 0 - - - 0;
#X text 351 438 alpha;
#X obj 227 284 expr 2*3.14159265 *$f2/$f1;
#X text 900 272 b0;
#X text 901 300 b1;
#X text 900 332 b2;
#X text 904 244 a0;
#X text 900 356 a1;
#X text 900 390 a2;
#X obj 1475 112 t b f;
#X obj 1475 464 pack f f f f f;
#X listbox 1473 526 50 0 0 0 - - - 0;
#X obj 1352 298 expr $f1/$f2;
#X obj 1436 331 expr $f1/$f2;
#X obj 1503 360 expr $f1/$f2;
#X obj 1607 388 expr -$f1/$f2;
#X obj 1714 419 expr -$f1/$f2;
#X text 374 354 S, f 2;
#X obj 224 409 expr sin($f1)/2*sqrt(($f3+pow($f3 \, -1))*(pow($f2 \, -1)-1)+2);
#X msg 227 257 48000;
#X text 1220 473 coefficienti high shelv;
#X obj 41 408 value omegahi;
#X obj 224 466 value alphahi;
#X obj 724 376 value Ahi;
#X obj 936 242 expr (Ahi+1)-(Ahi-1)*cos(omegahi)+2*alphahi*sqrt(Ahi);
#X obj 936 271 expr Ahi*((Ahi+1)+(Ahi-1)*cos(omegahi)+2*alphahi*sqrt(Ahi));
#X obj 933 301 expr -2*Ahi*((Ahi-1)+(Ahi+1)*cos(omegahi)), f 45;
#X obj 937 330 expr Ahi*((Ahi+1)+(Ahi-1)*cos(omegahi)-2*alphahi*sqrt(Ahi));
#X obj 939 358 expr 2*((Ahi-1)-(Ahi+1)*cos(omegahi));
#X obj 939 389 expr (Ahi+1)-(Ahi-1)*cos(omegahi)-2*alphahi*sqrt(Ahi);
#X msg 317 235 1000;
#X obj 374 253 t b f;
#X floatatom 399 354 5 0 0 0 - - - 0;
#X obj 398 374 t b f;
#X obj 604 379 t b f;
#X obj 331 465 s high_\$0;
#X obj 144 409 s high_\$0;
#X obj 649 376 s high_\$0;
#X obj 1301 300 t b f;
#X obj 1393 333 t b f;
#X obj 1460 361 t b f;
#X obj 1671 418 t b f;
#X msg 399 331 0.8;
#X floatatom 599 294 9 0 0 0 - - - 0;
#X obj 530 240 loadbang;
#X msg 531 266 0;
#X text 669 38 high shelving;
#X floatatom 372 172 5 0 0 0 - - - 0;
#X obj 373 146 expr 100*pow(10 \, (2*$f1)/127);
#X obj 261 163 loadbang;
#X obj 832 302 bng 19 250 50 0 empty empty empty 0 -10 0 12 #fcfcfc #000000 #000000;
#X obj 823 259 r high_\$0;
#X obj 1486 498 outlet;
#X obj 373 118 inlet;
#X obj 599 240 inlet;
#X obj 599 266 expr log(0.1+$f1/64)*20;
#X obj 373 225 else/smooth;
#X msg 372 199 \$1 100;
#X obj 399 309 loadbang;
#X obj 265 191 t b b;
#X connect 3 0 31 0;
#X connect 3 0 42 0;
#X connect 3 0 45 0;
#X connect 5 0 3 0;
#X connect 6 0 26 0;
#X connect 6 0 29 0;
#X connect 6 0 44 0;
#X connect 8 0 30 0;
#X connect 8 0 43 0;
#X connect 10 0 6 0;
#X connect 17 0 20 0;
#X connect 17 0 21 0;
#X connect 17 0 22 0;
#X connect 17 0 23 0;
#X connect 17 0 24 0;
#X connect 17 1 20 1;
#X connect 17 1 21 1;
#X connect 17 1 22 1;
#X connect 17 1 23 1;
#X connect 17 1 24 1;
#X connect 18 0 19 0;
#X connect 18 0 60 0;
#X connect 20 0 46 0;
#X connect 21 0 47 0;
#X connect 22 0 48 0;
#X connect 23 0 18 0;
#X connect 24 0 49 0;
#X connect 26 0 8 0;
#X connect 27 0 10 0;
#X connect 32 0 17 0;
#X connect 33 0 20 0;
#X connect 34 0 21 0;
#X connect 35 0 22 0;
#X connect 36 0 23 0;
#X connect 37 0 24 0;
#X connect 38 0 39 0;
#X connect 39 0 10 0;
#X connect 39 1 10 1;
#X connect 40 0 41 0;
#X connect 41 0 26 0;
#X connect 41 1 26 1;
#X connect 42 0 26 0;
#X connect 42 1 26 2;
#X connect 46 0 18 0;
#X connect 46 1 18 2;
#X connect 47 0 18 0;
#X connect 47 1 18 3;
#X connect 48 0 18 0;
#X connect 48 1 18 4;
#X connect 49 0 18 0;
#X connect 49 1 18 1;
#X connect 50 0 40 0;
#X connect 51 0 5 0;
#X connect 52 0 53 0;
#X connect 53 0 51 0;
#X connect 55 0 65 0;
#X connect 56 0 55 0;
#X connect 57 0 67 0;
#X connect 58 0 32 0;
#X connect 58 0 33 0;
#X connect 58 0 34 0;
#X connect 58 0 35 0;
#X connect 58 0 36 0;
#X connect 58 0 37 0;
#X connect 59 0 58 0;
#X connect 61 0 56 0;
#X connect 62 0 63 0;
#X connect 63 0 51 0;
#X connect 64 0 39 0;
#X connect 65 0 64 0;
#X connect 66 0 50 0;
#X connect 67 0 38 0;
#X connect 67 1 27 0;
