#N canvas 4 64 1920 966 12;
#X obj 192 34 ctlin;
#X obj 192 92 spigot;
#X obj 192 153 spigot;
#X obj 265 323 loadbang;
#X obj 192 286 * -1;
#X obj 192 317 pow 2;
#X obj 192 347 * -100;
#X obj 192 256 moses;
#X obj 245 288 * 12;
#X msg 192 376 set \$1;
#X obj 192 180 / 127;
#X obj 192 205 * 2;
#X obj 192 228 - 1;
#X msg 264 349 0;
#X obj 241 57 r mode;
#X msg 241 121 0;
#X msg 282 121 1;
#X obj 241 87 sel 1 0;
#X obj 192 63 == 16;
#X obj 335 30 ctlin;
#X obj 335 88 spigot;
#X obj 335 149 spigot;
#X obj 408 319 loadbang;
#X obj 335 282 * -1;
#X obj 335 313 pow 2;
#X obj 335 343 * -100;
#X obj 335 252 moses;
#X obj 388 284 * 12;
#X msg 335 373 set \$1;
#X obj 335 176 / 127;
#X obj 335 201 * 2;
#X obj 335 224 - 1;
#X msg 407 345 0;
#X obj 384 53 r mode;
#X msg 384 117 0;
#X msg 425 117 1;
#X obj 384 83 sel 1 0;
#X obj 335 59 == 20;
#X obj 192 403 outlet;
#X obj 336 401 outlet;
#X obj 488 36 ctlin;
#X obj 488 94 spigot;
#X obj 488 155 spigot;
#X obj 561 325 loadbang;
#X obj 488 288 * -1;
#X obj 488 319 pow 2;
#X obj 488 349 * -100;
#X obj 488 258 moses;
#X obj 541 290 * 12;
#X msg 488 378 set \$1;
#X obj 488 182 / 127;
#X obj 488 207 * 2;
#X obj 488 230 - 1;
#X msg 560 351 0;
#X obj 537 59 r mode;
#X msg 537 123 0;
#X msg 578 123 1;
#X obj 537 89 sel 1 0;
#X obj 631 32 ctlin;
#X obj 631 90 spigot;
#X obj 631 151 spigot;
#X obj 704 321 loadbang;
#X obj 631 284 * -1;
#X obj 631 315 pow 2;
#X obj 631 345 * -100;
#X obj 631 254 moses;
#X obj 684 286 * 12;
#X msg 631 375 set \$1;
#X obj 631 178 / 127;
#X obj 631 203 * 2;
#X obj 631 226 - 1;
#X msg 703 347 0;
#X obj 680 55 r mode;
#X msg 680 119 0;
#X msg 721 119 1;
#X obj 680 85 sel 1 0;
#X obj 488 405 outlet;
#X obj 632 403 outlet;
#X obj 783 31 ctlin;
#X obj 783 89 spigot;
#X obj 783 150 spigot;
#X obj 856 320 loadbang;
#X obj 783 283 * -1;
#X obj 783 314 pow 2;
#X obj 783 344 * -100;
#X obj 783 253 moses;
#X obj 836 285 * 12;
#X msg 783 373 set \$1;
#X obj 783 177 / 127;
#X obj 783 202 * 2;
#X obj 783 225 - 1;
#X msg 855 346 0;
#X obj 832 54 r mode;
#X msg 832 118 0;
#X msg 873 118 1;
#X obj 832 84 sel 1 0;
#X obj 926 27 ctlin;
#X obj 926 85 spigot;
#X obj 926 146 spigot;
#X obj 999 316 loadbang;
#X obj 926 279 * -1;
#X obj 926 310 pow 2;
#X obj 926 340 * -100;
#X obj 926 249 moses;
#X obj 979 281 * 12;
#X msg 926 370 set \$1;
#X obj 926 173 / 127;
#X obj 926 198 * 2;
#X obj 926 221 - 1;
#X msg 998 342 0;
#X obj 975 50 r mode;
#X msg 975 114 0;
#X msg 1016 114 1;
#X obj 975 80 sel 1 0;
#X obj 783 400 outlet;
#X obj 927 398 outlet;
#X obj 1079 33 ctlin;
#X obj 1079 91 spigot;
#X obj 1079 152 spigot;
#X obj 1152 322 loadbang;
#X obj 1079 285 * -1;
#X obj 1079 316 pow 2;
#X obj 1079 346 * -100;
#X obj 1079 255 moses;
#X obj 1132 287 * 12;
#X msg 1079 375 set \$1;
#X obj 1079 179 / 127;
#X obj 1079 204 * 2;
#X obj 1079 227 - 1;
#X msg 1151 348 0;
#X obj 1128 56 r mode;
#X msg 1128 120 0;
#X msg 1169 120 1;
#X obj 1128 86 sel 1 0;
#X obj 1222 29 ctlin;
#X obj 1222 87 spigot;
#X obj 1222 148 spigot;
#X obj 1295 318 loadbang;
#X obj 1222 281 * -1;
#X obj 1222 312 pow 2;
#X obj 1222 342 * -100;
#X obj 1222 251 moses;
#X obj 1275 283 * 12;
#X msg 1222 372 set \$1;
#X obj 1222 175 / 127;
#X obj 1222 200 * 2;
#X obj 1222 223 - 1;
#X msg 1294 344 0;
#X obj 1271 52 r mode;
#X msg 1271 116 0;
#X msg 1312 116 1;
#X obj 1271 82 sel 1 0;
#X obj 1079 402 outlet;
#X obj 1223 400 outlet;
#X obj 490 65 == 24;
#X obj 631 61 == 28;
#X obj 783 60 == 17;
#X obj 934 57 == 21;
#X obj 1082 62 == 18;
#X obj 1222 58 == 22;
#X floatatom 747 402 5 0 0 0 - - - 0;
#X connect 0 0 1 0;
#X connect 0 1 18 0;
#X connect 1 0 2 0;
#X connect 2 0 10 0;
#X connect 3 0 13 0;
#X connect 4 0 5 0;
#X connect 5 0 6 0;
#X connect 6 0 9 0;
#X connect 7 0 4 0;
#X connect 7 1 8 0;
#X connect 8 0 9 0;
#X connect 9 0 38 0;
#X connect 10 0 11 0;
#X connect 11 0 12 0;
#X connect 12 0 7 0;
#X connect 13 0 9 0;
#X connect 14 0 17 0;
#X connect 15 0 2 1;
#X connect 16 0 2 1;
#X connect 17 0 15 0;
#X connect 17 1 16 0;
#X connect 18 0 1 1;
#X connect 19 0 20 0;
#X connect 19 1 37 0;
#X connect 20 0 21 0;
#X connect 21 0 29 0;
#X connect 22 0 32 0;
#X connect 23 0 24 0;
#X connect 24 0 25 0;
#X connect 25 0 28 0;
#X connect 26 0 23 0;
#X connect 26 1 27 0;
#X connect 27 0 28 0;
#X connect 28 0 39 0;
#X connect 29 0 30 0;
#X connect 30 0 31 0;
#X connect 31 0 26 0;
#X connect 32 0 28 0;
#X connect 33 0 36 0;
#X connect 34 0 21 1;
#X connect 35 0 21 1;
#X connect 36 0 34 0;
#X connect 36 1 35 0;
#X connect 37 0 20 1;
#X connect 40 0 41 0;
#X connect 40 1 154 0;
#X connect 41 0 42 0;
#X connect 42 0 50 0;
#X connect 43 0 53 0;
#X connect 44 0 45 0;
#X connect 45 0 46 0;
#X connect 46 0 49 0;
#X connect 47 0 44 0;
#X connect 47 1 48 0;
#X connect 48 0 49 0;
#X connect 49 0 76 0;
#X connect 50 0 51 0;
#X connect 51 0 52 0;
#X connect 52 0 47 0;
#X connect 53 0 49 0;
#X connect 54 0 57 0;
#X connect 55 0 42 1;
#X connect 56 0 42 1;
#X connect 57 0 55 0;
#X connect 57 1 56 0;
#X connect 58 0 59 0;
#X connect 58 1 155 0;
#X connect 59 0 60 0;
#X connect 60 0 68 0;
#X connect 61 0 71 0;
#X connect 62 0 63 0;
#X connect 63 0 64 0;
#X connect 64 0 67 0;
#X connect 65 0 62 0;
#X connect 65 1 66 0;
#X connect 66 0 67 0;
#X connect 67 0 77 0;
#X connect 68 0 69 0;
#X connect 69 0 70 0;
#X connect 70 0 65 0;
#X connect 71 0 67 0;
#X connect 72 0 75 0;
#X connect 73 0 60 1;
#X connect 74 0 60 1;
#X connect 75 0 73 0;
#X connect 75 1 74 0;
#X connect 78 0 79 0;
#X connect 78 1 156 0;
#X connect 79 0 80 0;
#X connect 80 0 88 0;
#X connect 81 0 91 0;
#X connect 82 0 83 0;
#X connect 83 0 84 0;
#X connect 84 0 87 0;
#X connect 84 0 160 0;
#X connect 85 0 82 0;
#X connect 85 1 86 0;
#X connect 86 0 87 0;
#X connect 87 0 114 0;
#X connect 88 0 89 0;
#X connect 89 0 90 0;
#X connect 90 0 85 0;
#X connect 91 0 87 0;
#X connect 92 0 95 0;
#X connect 93 0 80 1;
#X connect 94 0 80 1;
#X connect 95 0 93 0;
#X connect 95 1 94 0;
#X connect 96 0 97 0;
#X connect 96 1 157 0;
#X connect 97 0 98 0;
#X connect 98 0 106 0;
#X connect 99 0 109 0;
#X connect 100 0 101 0;
#X connect 101 0 102 0;
#X connect 102 0 105 0;
#X connect 103 0 100 0;
#X connect 103 1 104 0;
#X connect 104 0 105 0;
#X connect 105 0 115 0;
#X connect 106 0 107 0;
#X connect 107 0 108 0;
#X connect 108 0 103 0;
#X connect 109 0 105 0;
#X connect 110 0 113 0;
#X connect 111 0 98 1;
#X connect 112 0 98 1;
#X connect 113 0 111 0;
#X connect 113 1 112 0;
#X connect 116 0 117 0;
#X connect 116 1 158 0;
#X connect 117 0 118 0;
#X connect 118 0 126 0;
#X connect 119 0 129 0;
#X connect 120 0 121 0;
#X connect 121 0 122 0;
#X connect 122 0 125 0;
#X connect 123 0 120 0;
#X connect 123 1 124 0;
#X connect 124 0 125 0;
#X connect 125 0 152 0;
#X connect 126 0 127 0;
#X connect 127 0 128 0;
#X connect 128 0 123 0;
#X connect 129 0 125 0;
#X connect 130 0 133 0;
#X connect 131 0 118 1;
#X connect 132 0 118 1;
#X connect 133 0 131 0;
#X connect 133 1 132 0;
#X connect 134 0 135 0;
#X connect 134 1 159 0;
#X connect 135 0 136 0;
#X connect 136 0 144 0;
#X connect 137 0 147 0;
#X connect 138 0 139 0;
#X connect 139 0 140 0;
#X connect 140 0 143 0;
#X connect 141 0 138 0;
#X connect 141 1 142 0;
#X connect 142 0 143 0;
#X connect 143 0 153 0;
#X connect 144 0 145 0;
#X connect 145 0 146 0;
#X connect 146 0 141 0;
#X connect 147 0 143 0;
#X connect 148 0 151 0;
#X connect 149 0 136 1;
#X connect 150 0 136 1;
#X connect 151 0 149 0;
#X connect 151 1 150 0;
#X connect 154 0 41 1;
#X connect 155 0 59 1;
#X connect 156 0 79 1;
#X connect 157 0 97 1;
#X connect 158 0 117 1;
#X connect 159 0 135 1;
