#N canvas 0 0 1920 956 12;
#X obj 340 449 inlet~;
#X obj 965 246 inlet;
#X obj 965 269 unpack f f;
#X obj 965 293 expr pow(($f1/60) \, -1)*1000;
#X floatatom 967 324 5 0 0 0 - - - 0;
#X obj 836 582 delwrite~ left_\$0 10000;
#X obj 1006 583 delwrite~ right_\$0 10000;
#X floatatom 931 393 5 0 0 0 - - - 0;
#X obj 222 800 outlet~;
#X obj 835 478 delread4~ right_\$0;
#X obj 973 479 delread4~ left_\$0;
#X msg 866 164 2;
#X msg 906 165 3;
#X msg 942 165 4;
#X obj 105 139 hsl 120 19 0 1 0 0 empty empty feeback -2 -10 0 10 #594100 #faff00 #594100 0 1;
#X obj 872 300 t b f;
#X msg 978 165 8;
#X msg 1017 165 16, f 2;
#X msg 756 167 1;
#X msg 804 166 1.33333;
#X obj 838 555 *~;
#X obj 236 139 hsl 120 19 0 1 0 0 empty empty stereo -2 -10 0 10 #594100 #faff00 #594100 0 1;
#X obj 137 800 outlet~;
#X obj 112 583 *~;
#X obj 252 585 *~;
#X obj 169 504 * -1;
#X obj 170 528 + 1;
#X obj 159 583 *~;
#X obj 294 586 *~;
#X obj 274 617 +~;
#X obj 133 616 +~;
#X obj 107 660 +~;
#X obj 135 748 *~;
#X obj 203 749 *~;
#X obj 235 748 *~;
#X obj 364 138 hsl 120 19 0 1 0 0 empty empty dry/wet -2 -10 0 10 #594100 #faff00 #594100 0 1;
#X obj 254 239 s pan_\$0;
#X obj 185 656 r pan_\$0;
#X obj 155 701 * -1;
#X obj 156 725 + 1;
#X obj 929 365 / 1.33333;
#X text 94 750 Mono;
#X text 264 749 Stereo;
#X text 46 583 Left D/W;
#X text 321 586 Right D/W;
#X obj 931 439 line~;
#X msg 931 413 \$1 1000;
#X text 545 149 1;
#X text 523 130 1.3;
#X text 541 107 2;
#X text 562 101 3;
#X text 582 110 4;
#X text 585 132 8;
#X text 571 150 16;
#X obj 830 110 sel 0 1 2 3 4 5 6;
#X floatatom 827 78 5 0 0 0 - - - 0;
#X obj 20 23 stocafeedbackosc;
#X obj 159 21 stocadrywetosc;
#X obj 473 -5 stocadivisionosc;
#X obj 274 24 stocastereoosc;
#X text 495 129 div;
#X obj 26 199 loadbang;
#X msg 26 224 0;
#X obj 195 105 else/knob 32 0 127 0 0 empty empty #dfdfdf #7c7c7c black 0 0 0 0 1 320 0 0 0 empty empty 0 12 6 -15 0 1 0 0 1 1;
#X obj 325 105 else/knob 32 0 127 0 0 empty empty #dfdfdf #7c7c7c black 0 0 0 0 1 320 0 0 0 empty empty 0 12 6 -15 0 1 0 0 1 1;
#X obj 454 104 else/knob 32 0 127 0 0 empty empty #dfdfdf #7c7c7c black 0 0 0 0 1 320 0 0 0 empty empty 0 12 6 -15 0 1 0 0 1 1;
#X obj 160 105 else/knob 32 0 100 0 0 empty empty #dfdfdf #7c7c7c black 0 0 0 0 1 320 0 0 0 empty empty 0 12 6 -15 0 1 0 0 1 1;
#X obj 289 105 else/knob 32 0 100 0 0 empty empty #dfdfdf #7c7c7c black 0 0 0 0 1 320 0 0 0 empty empty 0 12 6 -15 0 1 0 0 1 1;
#X obj 418 104 else/knob 32 0 100 0 0 empty empty #dfdfdf #7c7c7c black 0 0 0 0 1 320 0 0 0 empty empty 0 12 6 -15 0 1 0 0 1 1;
#X obj 549 117 else/knob 37 0 6 0 0 empty empty #dfdfdf #7c7c7c black 0 0 7 1 1 320 0 0 0 empty empty 0 12 6 -15 0 1 1 0 1 1;
#X connect 0 0 5 0;
#X connect 0 0 27 1;
#X connect 0 0 28 1;
#X connect 1 0 2 0;
#X connect 2 0 3 0;
#X connect 3 0 4 0;
#X connect 4 0 40 0;
#X connect 7 0 46 0;
#X connect 9 0 20 0;
#X connect 9 0 24 1;
#X connect 10 0 6 0;
#X connect 10 0 23 0;
#X connect 11 0 15 0;
#X connect 12 0 15 0;
#X connect 13 0 15 0;
#X connect 14 0 20 1;
#X connect 15 0 40 0;
#X connect 15 1 40 1;
#X connect 16 0 15 0;
#X connect 17 0 15 0;
#X connect 18 0 15 0;
#X connect 19 0 15 0;
#X connect 20 0 5 0;
#X connect 21 0 36 0;
#X connect 23 0 30 0;
#X connect 24 0 29 0;
#X connect 25 0 26 0;
#X connect 26 0 27 0;
#X connect 26 0 28 0;
#X connect 27 0 30 0;
#X connect 28 0 29 0;
#X connect 29 0 31 0;
#X connect 29 0 34 0;
#X connect 30 0 31 0;
#X connect 30 0 33 0;
#X connect 31 0 32 0;
#X connect 32 0 22 0;
#X connect 32 0 8 0;
#X connect 33 0 22 0;
#X connect 34 0 8 0;
#X connect 35 0 24 0;
#X connect 35 0 25 0;
#X connect 35 0 23 1;
#X connect 37 0 38 0;
#X connect 37 0 33 1;
#X connect 37 0 34 1;
#X connect 38 0 39 0;
#X connect 39 0 32 1;
#X connect 40 0 7 0;
#X connect 45 0 10 0;
#X connect 45 0 9 0;
#X connect 46 0 45 0;
#X connect 54 0 18 0;
#X connect 54 1 19 0;
#X connect 54 2 11 0;
#X connect 54 3 12 0;
#X connect 54 4 13 0;
#X connect 54 5 16 0;
#X connect 54 6 17 0;
#X connect 55 0 54 0;
#X connect 56 0 14 0;
#X connect 56 1 66 0;
#X connect 56 2 63 0;
#X connect 57 0 21 0;
#X connect 57 1 67 0;
#X connect 57 2 64 0;
#X connect 58 0 69 0;
#X connect 59 0 35 0;
#X connect 59 1 68 0;
#X connect 59 2 65 0;
#X connect 61 0 62 0;
#X connect 62 0 35 0;
#X connect 62 0 21 0;
#X connect 62 0 14 0;
#X connect 63 0 56 1;
#X connect 64 0 57 1;
#X connect 65 0 59 1;
#X connect 66 0 56 0;
#X connect 67 0 57 0;
#X connect 68 0 59 0;
#X connect 69 0 55 0;
#X coords 0 -1 1 1 500 68 2 100 100;
