#N canvas 4 0 1920 966 12;
#X floatatom 325 837 5 0 0 0 - - - 0;
#X obj 78 750 else/rand.dist note_\$0;
#X text 330 813 nota suonata;
#X obj 155 695 loadbang;
#X obj 325 876 outlet;
#X msg 155 722 7;
#X obj 263 667 else/rand.dist pausa_\$0 0 1;
#X floatatom 262 694 3 0 0 0 - - - 0;
#X obj 262 750 == 0;
#X obj 266 801 spigot;
#X obj 273 719 sel 0, f 6;
#X msg 299 750 8;
#X text 333 637 pause;
#X obj 243 303 inlet;
#X obj 1255 42 ctlin;
#X obj 1308 159 == 19;
#X obj 1378 159 == 23;
#X obj 1457 164 == 27;
#X obj 1597 165 == 49;
#X obj 1671 170 == 53;
#X obj 1747 166 == 57;
#X obj 1823 165 == 61;
#X obj 1521 163 == 31;
#X floatatom 1272 80 4 0 0 0 - - - 0;
#X obj 1346 369 spigot;
#X obj 1344 530 tabwrite note_\$0, f 8;
#X obj 1418 375 spigot;
#X obj 1417 532 tabwrite note_\$0, f 8;
#X obj 1489 377 spigot;
#X obj 1488 534 tabwrite note_\$0, f 8;
#X obj 1563 377 spigot;
#X obj 1562 534 tabwrite note_\$0, f 8;
#X obj 1639 380 spigot;
#X obj 1638 537 tabwrite note_\$0, f 8;
#X obj 1715 377 spigot;
#X obj 1714 534 tabwrite note_\$0, f 8;
#X obj 1791 376 spigot;
#X obj 1790 533 tabwrite note_\$0, f 8;
#X obj 1277 371 spigot;
#X obj 1274 529 tabwrite note_\$0, f 8;
#X floatatom 1262 293 5 0 0 0 - - - 0;
#X obj 1256 129 / 127;
#X floatatom 1065 235 5 0 127 0 - - - 0;
#N canvas 0 50 450 250 (subpatch) 0;
#X array pausa_\$0 2 float 3;
#A 0 127 63;
#A color 0;
#A width 2;
#X coords 0 127 2 0 49 127 1;
#X restore 938 232 graph;
#X obj 1095 293 tabwrite pausa_\$0;
#X obj 991 234 loadbang;
#X obj 1064 257 t b f;
#X msg 991 260 127;
#X obj 991 291 -;
#X obj 991 323 tabwrite pausa_\$0;
#X msg 1060 294 1;
#X text 1003 50 scrittura pausa;
#X obj 1068 76 ctlin, f 6;
#X obj 1068 128 spigot;
#X obj 1059 206 expr 127-$f1;
#X obj 1258 225 spigot;
#X obj 1122 124 r mode;
#X obj 1067 156 spigot;
#X text 1481 97 scrittura probabilità;
#X obj 444 873 stocaluciosc, f 14;
#X obj 240 630 t b b b;
#X obj 1359 427 loadbang;
#X obj 1359 453 t b b;
#X msg 1359 486 0;
#X obj 1282 433 loadbang;
#X obj 1282 459 t b b;
#X msg 1282 492 0;
#X msg 1314 492 0;
#X obj 1427 425 loadbang;
#X obj 1427 454 t b b;
#X msg 1427 487 0;
#X obj 1502 425 loadbang;
#X obj 1502 454 t b b;
#X msg 1502 487 0;
#X obj 1572 427 loadbang;
#X obj 1572 456 t b b;
#X msg 1572 489 0;
#X obj 1647 428 loadbang;
#X obj 1647 457 t b b;
#X msg 1647 490 0;
#X obj 1723 427 loadbang;
#X obj 1723 456 t b b;
#X msg 1723 489 0;
#X obj 1805 430 loadbang;
#X obj 1805 459 t b b;
#X msg 1805 492 0;
#X msg 1391 486 1;
#X msg 1459 487 2;
#X msg 1534 487 3;
#X msg 1604 489 4;
#X msg 1679 490 5;
#X msg 1755 489 6;
#X msg 1837 492 7;
#X floatatom 1067 183 5 0 127 0 - - - 0;
#X obj 211 875 s notegui_\$0;
#X obj 1263 197 r mode;
#X obj 397 159 r notegui_\$0;
#X obj 406 348 tabread note_\$0;
#X obj 406 398 sel 1;
#X obj 518 348 tabread note_\$0;
#X obj 518 398 sel 1;
#X obj 629 348 tabread note_\$0;
#X obj 629 398 sel 1;
#X obj 741 349 tabread note_\$0;
#X obj 741 399 sel 1;
#X obj 406 453 tabread note_\$0;
#X obj 406 503 sel 1;
#X obj 518 453 tabread note_\$0;
#X obj 518 503 sel 1;
#X obj 630 453 tabread note_\$0;
#X obj 630 503 sel 1;
#X obj 743 453 tabread note_\$0;
#X obj 743 503 sel 1;
#X obj 406 374 <= 0;
#X obj 518 374 <= 0;
#X obj 629 374 <= 0;
#X obj 741 375 <= 0;
#X obj 406 479 <= 0;
#X obj 518 479 <= 0;
#X obj 630 479 <= 0;
#X obj 743 479 <= 0;
#X obj 238 344 del 0;
#X obj 241 593 spigot;
#X obj 524 569 tgl 19 0 empty empty empty 0 -10 0 12 #fcfcfc #000000 #000000 0 1;
#X obj 433 536 loadbang;
#X msg 435 561 1;
#X obj 498 536 del 1;
#X obj 52 613 bng 19 250 50 0 empty empty empty 0 -10 0 12 #fcfcfc #000000 #000000;
#X obj 42 881 outlet;
#X msg 406 321 0;
#X msg 518 321 1;
#X msg 629 321 2;
#X msg 741 322 3;
#X msg 518 426 5;
#X msg 630 426 6;
#X msg 744 428 7;
#X msg 406 426 4;
#X obj 1083 104 == 28;
#X obj 343 251 bng 19 250 50 0 empty empty empty 0 -10 0 12 #0e4345 #00faff #000000;
#X obj 310 109 vsl 19 162 0 127 0 0 empty empty empty 0 -9 0 12 #594100 #faff00 #000000 0 1;
#X floatatom 345 224 2 0 0 0 - - - 0;
#X text 334 108 prob pause, f 5;
#X text 336 203 nota;
#N canvas 224 224 450 226 (subpatch) 0;
#X array note_\$0 8 float 3;
#A 0 0.539569 0 0 0 0 0 0 0;
#A color 0;
#A width 2;
#X coords 0 1 8 0 199 139 2 0 0;
#X restore 106 125 graph;
#X connect 0 0 4 0;
#X connect 0 0 59 0;
#X connect 0 0 94 0;
#X connect 1 0 9 0;
#X connect 3 0 5 0;
#X connect 5 0 1 2;
#X connect 6 0 7 0;
#X connect 7 0 8 0;
#X connect 7 0 10 0;
#X connect 8 0 9 1;
#X connect 9 0 0 0;
#X connect 10 1 11 0;
#X connect 11 0 0 0;
#X connect 13 0 129 0;
#X connect 13 0 121 0;
#X connect 13 0 138 0;
#X connect 14 0 41 0;
#X connect 14 1 23 0;
#X connect 15 0 38 1;
#X connect 16 0 24 1;
#X connect 17 0 26 1;
#X connect 18 0 30 1;
#X connect 19 0 32 1;
#X connect 20 0 34 1;
#X connect 21 0 36 1;
#X connect 22 0 28 1;
#X connect 23 0 15 0;
#X connect 23 0 16 0;
#X connect 23 0 17 0;
#X connect 23 0 22 0;
#X connect 23 0 18 0;
#X connect 23 0 19 0;
#X connect 23 0 20 0;
#X connect 23 0 21 0;
#X connect 24 0 25 0;
#X connect 26 0 27 0;
#X connect 28 0 29 0;
#X connect 30 0 31 0;
#X connect 32 0 33 0;
#X connect 34 0 35 0;
#X connect 36 0 37 0;
#X connect 38 0 39 0;
#X connect 40 0 38 0;
#X connect 40 0 24 0;
#X connect 40 0 26 0;
#X connect 40 0 28 0;
#X connect 40 0 30 0;
#X connect 40 0 32 0;
#X connect 40 0 34 0;
#X connect 40 0 36 0;
#X connect 41 0 55 0;
#X connect 42 0 46 0;
#X connect 45 0 47 0;
#X connect 45 0 50 0;
#X connect 46 0 48 0;
#X connect 46 1 44 0;
#X connect 46 1 48 1;
#X connect 47 0 48 0;
#X connect 48 0 49 0;
#X connect 50 0 49 1;
#X connect 52 0 53 0;
#X connect 52 1 137 0;
#X connect 53 0 57 0;
#X connect 54 0 42 0;
#X connect 55 0 40 0;
#X connect 56 0 57 1;
#X connect 57 0 93 0;
#X connect 60 0 1 0;
#X connect 60 1 6 0;
#X connect 60 2 59 1;
#X connect 61 0 62 0;
#X connect 62 0 63 0;
#X connect 62 1 86 0;
#X connect 63 0 25 0;
#X connect 64 0 65 0;
#X connect 65 0 66 0;
#X connect 65 1 67 0;
#X connect 66 0 39 0;
#X connect 67 0 39 1;
#X connect 68 0 69 0;
#X connect 69 0 70 0;
#X connect 69 1 87 0;
#X connect 70 0 27 0;
#X connect 71 0 72 0;
#X connect 72 0 73 0;
#X connect 72 1 88 0;
#X connect 73 0 29 0;
#X connect 74 0 75 0;
#X connect 75 0 76 0;
#X connect 75 1 89 0;
#X connect 76 0 31 0;
#X connect 77 0 78 0;
#X connect 78 0 79 0;
#X connect 78 1 90 0;
#X connect 79 0 33 0;
#X connect 80 0 81 0;
#X connect 81 0 82 0;
#X connect 81 1 91 0;
#X connect 82 0 35 0;
#X connect 83 0 84 0;
#X connect 84 0 85 0;
#X connect 84 1 92 0;
#X connect 85 0 37 0;
#X connect 86 0 25 1;
#X connect 87 0 27 1;
#X connect 88 0 29 1;
#X connect 89 0 31 1;
#X connect 90 0 33 1;
#X connect 91 0 35 1;
#X connect 92 0 37 1;
#X connect 93 0 139 0;
#X connect 95 0 55 1;
#X connect 96 0 140 0;
#X connect 97 0 113 0;
#X connect 98 0 130 0;
#X connect 99 0 114 0;
#X connect 100 0 131 0;
#X connect 101 0 115 0;
#X connect 102 0 132 0;
#X connect 103 0 116 0;
#X connect 104 0 136 0;
#X connect 105 0 117 0;
#X connect 106 0 133 0;
#X connect 107 0 118 0;
#X connect 108 0 134 0;
#X connect 109 0 119 0;
#X connect 110 0 135 0;
#X connect 111 0 120 0;
#X connect 112 0 123 0;
#X connect 112 0 126 0;
#X connect 113 0 98 0;
#X connect 114 0 100 0;
#X connect 115 0 102 0;
#X connect 116 0 104 0;
#X connect 117 0 106 0;
#X connect 118 0 108 0;
#X connect 119 0 110 0;
#X connect 120 0 112 0;
#X connect 121 0 122 0;
#X connect 122 0 60 0;
#X connect 122 0 127 0;
#X connect 123 0 122 1;
#X connect 124 0 125 0;
#X connect 125 0 123 0;
#X connect 126 0 123 0;
#X connect 127 0 128 0;
#X connect 129 0 97 0;
#X connect 130 0 99 0;
#X connect 131 0 101 0;
#X connect 132 0 103 0;
#X connect 133 0 107 0;
#X connect 134 0 109 0;
#X connect 135 0 111 0;
#X connect 136 0 105 0;
#X connect 137 0 53 1;
#X connect 139 0 54 0;
#X coords 0 -1 1 1 275 180 2 100 100;
